<?xml version="1.0" encoding="utf-8"?>
<!-- Generator: Adobe Illustrator 25.4.1, SVG Export Plug-In . SVG Version: 6.00 Build 0)  -->
<svg version="1.1" xmlns="http://www.w3.org/2000/svg" xmlns:xlink="http://www.w3.org/1999/xlink" x="0px" y="0px"
	 viewBox="0 0 549.9 481.3" style="enable-background:new 0 0 549.9 481.3;" xml:space="preserve">
<style type="text/css">
	.st0{fill:none;stroke:#424242;stroke-width:1.5;stroke-linejoin:round;stroke-miterlimit:10;}
	.st1{fill:none;stroke:#424242;stroke-width:2;stroke-linejoin:round;stroke-miterlimit:10;}
	.st2{fill:#2D43FF;}
	.st3{fill:#0B1760;}
	.st4{fill:#7988FF;}
	.st5{fill:#162280;}
</style>
<g id="Background">
</g>
<g id="Icons">
	<g>
		<g>
			<path class="st2" d="M483.4,224.4h-51.2c-53.7,0-106.3-14.3-152.1-41.3c-10.1-5.9-20.6-11.3-31.4-16c-7.3-3.1-14.8-6-22.3-8.5
				c-4.5-1.5-9.1-2.9-13.6-4.2c-25.4-7.2-51.7-10.8-78.2-10.8h-69c-3.6,0-6.5-2.9-6.5-6.5v-26.4c0-3.6,2.9-6.5,6.5-6.5h69
				c53.7,0,106.3,14.3,152.1,41.3c43.8,25.8,94,39.5,145.4,39.5h51.2c3.6,0,6.5,2.9,6.5,6.5v26.4C489.9,221.5,487,224.4,483.4,224.4
				z M72.2,130.5h62.5c27.7,0,55.1,3.8,81.7,11.3c4.8,1.3,9.5,2.8,14.2,4.4c7.9,2.6,15.7,5.6,23.3,8.9c11.3,4.9,22.3,10.5,32.8,16.7
				c43.8,25.8,94,39.5,145.4,39.5h44.7V198h-44.7c-53.7,0-106.3-14.3-152.1-41.3c-43.8-25.8-94-39.5-145.4-39.5H72.2V130.5z"/>
			<path class="st2" d="M111.6,386.9c-3.6,0-6.5-2.9-6.5-6.5v-198l-43.9-40.6c-2.6-2.4-2.8-6.6-0.4-9.2c2.4-2.6,6.6-2.8,9.2-0.4
				l45.9,42.5c1.3,1.2,2.1,3,2.1,4.8v200.9C118.1,384,115.2,386.9,111.6,386.9z"/>
			<path class="st2" d="M442.5,386.9c-3.6,0-6.5-2.9-6.5-6.5V245.9c0-2.1,1.1-4.2,2.8-5.4l40.8-28c3-2,7-1.3,9.1,1.7
				c2,3,1.3,7-1.7,9.1l-38,26.1v131.1C449.1,384,446.1,386.9,442.5,386.9z"/>
			<path class="st2" d="M484.2,388.6h-416c-3.6,0-6.5-2.9-6.5-6.5c0-3.6,2.9-6.5,6.5-6.5h416c3.6,0,6.5,2.9,6.5,6.5
				C490.7,385.7,487.8,388.6,484.2,388.6z"/>
			<path class="st2" d="M321.5,386.5c-3.6,0-6.5-2.9-6.5-6.5v-75h-67.5v75c0,3.6-2.9,6.5-6.5,6.5c-3.6,0-6.5-2.9-6.5-6.5v-81.5
				c0-3.6,2.9-6.5,6.5-6.5h80.6c3.6,0,6.5,2.9,6.5,6.5v81.5C328.1,383.5,325.1,386.5,321.5,386.5z"/>
			<path class="st2" d="M161.8,363.3c-3.6,0-6.5-2.9-6.5-6.5V181.3l-23.5-40c-1.8-3.1-0.8-7.1,2.3-8.9c3.1-1.8,7.1-0.8,8.9,2.3
				l24.4,41.5c0.6,1,0.9,2.1,0.9,3.3v177.2C168.3,360.3,165.4,363.3,161.8,363.3z"/>
			<path class="st2" d="M207.4,363.3c-3.6,0-6.5-2.9-6.5-6.5V181l-16.4-35.5c-1.5-3.3-0.1-7.1,3.2-8.6c3.3-1.5,7.1-0.1,8.6,3.2
				l17,36.8c0.4,0.9,0.6,1.8,0.6,2.7v177.2C214,360.3,211,363.3,207.4,363.3z"/>
			<path class="st2" d="M252.7,271.7c-3.6,0-6.5-2.9-6.5-6.4l-1.5-104.1c-0.1-3.6,2.8-6.6,6.4-6.6c0,0,0.1,0,0.1,0
				c3.6,0,6.5,2.9,6.5,6.4l1.5,104.1C259.3,268.7,256.4,271.7,252.7,271.7C252.8,271.7,252.8,271.7,252.7,271.7z"/>
			<path class="st2" d="M296.4,271.7c-3.6,0-6.5-2.9-6.5-6.5v-29.7c0-0.4,0-0.7,0.1-1.1l7.6-46.3c0.6-3.6,3.9-6,7.5-5.4
				c3.6,0.6,6,3.9,5.4,7.5l-7.5,45.8v29.2C302.9,268.8,300,271.7,296.4,271.7z"/>
			<path class="st2" d="M339.4,271.7c-3.6,0-6.5-2.9-6.5-6.5v-29.7c0-0.6,0.1-1.1,0.2-1.6l7.6-29.3c0.9-3.5,4.5-5.6,7.9-4.7
				c3.5,0.9,5.6,4.5,4.7,7.9l-7.4,28.5v28.9C345.9,268.8,343,271.7,339.4,271.7z"/>
			<path class="st2" d="M384.8,365.9c-3.6,0-6.5-2.9-6.5-6.5V235.5c0-0.8,0.2-1.7,0.5-2.4l7.6-18.8c1.3-3.3,5.1-5,8.5-3.6
				c3.3,1.3,5,5.1,3.6,8.5l-7.1,17.7v122.6C391.4,362.9,388.4,365.9,384.8,365.9z"/>
			<path class="st2" d="M417.9,365.9c-3.6,0-6.5-2.9-6.5-6.5V235.5c0-2,0.9-3.9,2.5-5.1l22.3-17.4c2.8-2.2,6.9-1.7,9.2,1.1
				c2.2,2.8,1.7,6.9-1.1,9.2l-19.8,15.5v120.7C424.5,362.9,421.5,365.9,417.9,365.9z"/>
			<path class="st2" d="M223.8,186.1H111.6c-3.6,0-6.5-2.9-6.5-6.5s2.9-6.5,6.5-6.5h112.2c3.6,0,6.5,2.9,6.5,6.5
				S227.4,186.1,223.8,186.1z"/>
			<path class="st2" d="M250.7,242H113.1c-3.6,0-6.5-2.9-6.5-6.5s2.9-6.5,6.5-6.5h137.6c3.6,0,6.5,2.9,6.5,6.5S254.3,242,250.7,242z
				"/>
			<path class="st2" d="M205.5,271.7h-64.5c-3.6,0-6.5-2.9-6.5-6.5c0-3.6,2.9-6.5,6.5-6.5h64.5c3.6,0,6.5,2.9,6.5,6.5
				C212.1,268.8,209.1,271.7,205.5,271.7z"/>
			<path class="st2" d="M442.6,271.7H339.4c-3.6,0-6.5-2.9-6.5-6.5c0-3.6,2.9-6.5,6.5-6.5h103.2c3.6,0,6.5,2.9,6.5,6.5
				C449.2,268.8,446.2,271.7,442.6,271.7z"/>
		</g>
	</g>
</g>
</svg>
