<?xml version="1.0" encoding="utf-8"?>
<!-- Generator: Adobe Illustrator 25.4.1, SVG Export Plug-In . SVG Version: 6.00 Build 0)  -->
<svg version="1.1" xmlns="http://www.w3.org/2000/svg" xmlns:xlink="http://www.w3.org/1999/xlink" x="0px" y="0px"
	 viewBox="0 0 549.9 481.3" style="enable-background:new 0 0 549.9 481.3;" xml:space="preserve">
<style type="text/css">
	.st0{fill:none;stroke:#424242;stroke-width:1.5;stroke-linejoin:round;stroke-miterlimit:10;}
	.st1{fill:none;stroke:#424242;stroke-width:2;stroke-linejoin:round;stroke-miterlimit:10;}
	.st2{fill:#2D43FF;}
	.st3{fill:#0B1760;}
	.st4{fill:#7988FF;}
	.st5{fill:#162280;}
</style>
<g id="Background">
</g>
<g id="Icons">
	<g>
		<path class="st2" d="M124,252.6c1.8-0.2,3.4-1.2,4.5-2.6c1.1-1.4,1.6-3.2,1.3-5l-1.1-7.9l0.6-0.4c16.7-11.8,69.4-24.5,145.6-24.5
			c76,0,128.7,12.7,145.5,24.5l0.6,0.4L420,245c-0.2,1.8,0.2,3.6,1.3,5c1.1,1.4,2.7,2.4,4.5,2.6c3.7,0.5,7.1-2.1,7.6-5.8
			c2.1-15.9,6.2-46.1,6.3-47c0-12.4-10.2-23.5-30.2-32.8l-0.6-0.3v-29.8l45.7-18.7c0.8-0.2,1.4-0.5,2-0.9c1.9-1.3,3-3.4,3-5.7
			c0-2.3-1.1-4.4-3-5.6c-0.6-0.4-1.3-0.7-2.1-0.9l-49.8-20.4c-2.1-0.9-4.5-0.6-6.4,0.6c-1.9,1.3-3,3.4-3,5.6v70.4l-1.5-0.5
			c-28.7-9.7-69.2-15.7-111-16.4l-1.1,0v-7.4l45.7-18.7c0.8-0.2,1.4-0.5,2-0.9c1.9-1.3,3-3.4,3-5.7c0-2.3-1.1-4.4-3-5.6
			c-0.6-0.4-1.3-0.7-2.1-0.9l-49.8-20.4c-2.1-0.9-4.5-0.6-6.4,0.6c-1.9,1.3-3,3.4-3,5.6v53.5l-1.1,0c-41.8,0.7-82.2,6.7-111,16.4
			l-1.5,0.5v-24.3l45.7-18.7c0.8-0.2,1.4-0.5,2-0.9c1.9-1.3,3-3.4,3-5.7c0-2.3-1.1-4.4-3-5.6c-0.6-0.4-1.3-0.7-2.1-0.9l-49.8-20.4
			c-0.8-0.3-1.7-0.5-2.6-0.5c-1.3,0-2.7,0.4-3.8,1.1c-1.9,1.3-3,3.4-3,5.6v75.8l-0.6,0.3c-20,9.3-30.2,20.4-30.2,32.9
			c0.1,1.3,5.5,41.9,6.2,46.9C116.9,250.5,120.3,253.1,124,252.6z M408.9,101l25.9,10.6l-25.9,10.6V101z M281.7,101l25.9,10.6
			l-25.9,10.6V101z M154.6,101l25.9,10.6l-25.9,10.6V101z M274.9,157.8c95.8,0,150.2,24.6,151.2,41.5l-3.1,22.9l-1.4-0.7
			c-27.2-14.2-83.4-23-146.7-23c-63.3,0-119.5,8.8-146.7,23l-1.4,0.7l-0.2-1.6c-1.9-14.4-2.6-19.7-2.8-21.1
			C124.5,182.4,178.8,157.8,274.9,157.8z"/>
		<path class="st2" d="M475.8,378.8H457v-86c0-9.3-7.2-18.3-16.4-20.4c-108.4-24.3-223-24.3-331.4,0c-9.1,2.1-16.3,11.1-16.3,20.4
			v86H74.1c-3.7,0-6.8,3-6.8,6.8c0,3.7,3,6.8,6.8,6.8h401.7c3.7,0,6.8-3,6.8-6.8C482.6,381.8,479.6,378.8,475.8,378.8z M268.1,378.8
			h-41.8v-69.7c0-2.4,2-4.4,4.4-4.4h37.4V378.8z M323.6,378.8h-41.8v-74.1h37.4c2.4,0,4.4,2,4.4,4.4V378.8z M443.4,378.8H337.2
			v-69.7c0-9.9-8.1-18-18-18h-88.4c-9.9,0-18,8.1-18,18v69.7H106.5v-86c0-3,2.8-6.5,5.8-7.2c106.5-23.9,219-23.9,325.4,0
			c3,0.7,5.8,4.2,5.8,7.2V378.8z"/>
	</g>
</g>
</svg>
