<?xml version="1.0" encoding="utf-8"?>
<!-- Generator: Adobe Illustrator 25.4.1, SVG Export Plug-In . SVG Version: 6.00 Build 0)  -->
<svg version="1.1" xmlns="http://www.w3.org/2000/svg" xmlns:xlink="http://www.w3.org/1999/xlink" x="0px" y="0px"
	 viewBox="0 0 549.9 481.3" style="enable-background:new 0 0 549.9 481.3;" xml:space="preserve">
<style type="text/css">
	.st0{fill:none;stroke:#424242;stroke-width:1.5;stroke-linejoin:round;stroke-miterlimit:10;}
	.st1{fill:none;stroke:#424242;stroke-width:2;stroke-linejoin:round;stroke-miterlimit:10;}
	.st2{fill:#2D43FF;}
	.st3{fill:#0B1760;}
	.st4{fill:#7988FF;}
	.st5{fill:#162280;}
</style>
<g id="Background">
</g>
<g id="Icons">
	<g>
		<path class="st2" d="M446.4,122.5L276.2,78.4c-0.8-0.2-1.6-0.2-2.4,0l-170.2,44.1c-2.1,0.6-3.6,2.5-3.6,4.7v31.5v226.9
			c0,0.3,0,0.6,0.1,0.9c0,0.1,0.1,0.3,0.1,0.4c0,0.2,0.1,0.3,0.2,0.5c0.1,0.2,0.2,0.3,0.2,0.4c0.1,0.1,0.1,0.3,0.2,0.4
			c0.2,0.2,0.3,0.5,0.5,0.7c0,0,0,0,0.1,0.1c0,0,0.1,0,0.1,0.1c0.2,0.2,0.4,0.4,0.6,0.5c0.1,0.1,0.3,0.2,0.4,0.2
			c0.1,0.1,0.3,0.2,0.4,0.2c0.2,0.1,0.3,0.1,0.5,0.2c0.1,0,0.2,0.1,0.4,0.1c0.3,0.1,0.6,0.1,1,0.1h69.3c2.7,0,4.8-2.2,4.8-4.8
			s-2.2-4.8-4.8-4.8h-26.7v-53.3h255v53.3h-26.7c-2.7,0-4.8,2.2-4.8,4.8s2.2,4.8,4.8,4.8h69.3c0.3,0,0.6,0,1-0.1
			c0.1,0,0.3-0.1,0.4-0.1c0.2-0.1,0.4-0.1,0.5-0.2c0.1-0.1,0.3-0.1,0.4-0.2c0.1-0.1,0.3-0.1,0.4-0.2c0.2-0.2,0.4-0.3,0.6-0.5
			c0,0,0.1,0,0.1-0.1c0,0,0,0,0.1-0.1c0.2-0.2,0.4-0.4,0.5-0.7c0.1-0.1,0.1-0.3,0.2-0.4c0.1-0.1,0.2-0.3,0.2-0.4
			c0.1-0.2,0.1-0.3,0.2-0.5c0-0.1,0.1-0.3,0.1-0.4c0.1-0.3,0.1-0.6,0.1-0.9V158.7v-31.5C450,125,448.5,123.1,446.4,122.5z
			 M419.1,352.6h21.3v21.3L419.1,352.6z M433.5,163.6l-21.3,21.3v-21.3H433.5z M412.2,208.2l21.3,21.3h-21.3V208.2z M412.2,239.2
			h21.3l-21.3,21.3V239.2z M412.2,283.9l21.3,21.3h-21.3V283.9z M419.1,277h21.3v21.3L419.1,277z M419.1,267.3l21.3-21.3v21.3H419.1
			z M419.1,201.4h21.3v21.3L419.1,201.4z M419.1,191.7l21.3-21.3v21.3H419.1z M412.2,314.8h21.3l-21.3,21.3V314.8z M440.3,321.7
			v21.3h-21.3L440.3,321.7z M275,88.1l165.3,42.9v22.9H109.7v-22.9L275,88.1z M137.8,305.1h-21.3l21.3-21.3V305.1z M131,277
			l-21.3,21.3V277H131z M109.7,267.3V246l21.3,21.3H109.7z M116.5,239.2h21.3v21.3L116.5,239.2z M137.8,229.5h-21.3l21.3-21.3V229.5
			z M109.7,222.6v-21.3H131L109.7,222.6z M109.7,191.7v-21.3l21.3,21.3H109.7z M109.7,321.7l21.3,21.3h-21.3V321.7z M109.7,352.6
			H131l-21.3,21.3V352.6z M116.5,314.8h21.3v21.3L116.5,314.8z M137.8,184.8l-21.3-21.3h21.3V184.8z M116.5,380.8l21.3-21.3v21.3
			H116.5z M147.5,317.7V163.6h255v154.2H147.5z M412.2,359.5l21.3,21.3h-21.3V359.5z"/>
		<path class="st2" d="M356.9,368.1h-14.1v-20.4c0-2.7-2.2-4.8-4.8-4.8H212c-2.7,0-4.8,2.2-4.8,4.8v20.4h-14.1
			c-2.7,0-4.8,2.2-4.8,4.8v25.2c0,2.7,2.2,4.8,4.8,4.8h163.9c2.7,0,4.8-2.2,4.8-4.8V373C361.8,370.3,359.6,368.1,356.9,368.1z
			 M216.8,352.6h116.4v15.5H216.8V352.6z M352.1,393.4H197.9v-15.5h154.2V393.4z"/>
		<path class="st2" d="M293.9,185.4h-14.1v-14.1c0-2.7-2.2-4.8-4.8-4.8s-4.8,2.2-4.8,4.8v14.1h-14.1c-2.7,0-4.8,2.2-4.8,4.8
			s2.2,4.8,4.8,4.8h37.8c2.7,0,4.8-2.2,4.8-4.8S296.6,185.4,293.9,185.4z"/>
		<path class="st2" d="M375.9,185.4h-14.1v-14.1c0-2.7-2.2-4.8-4.8-4.8s-4.8,2.2-4.8,4.8v14.1H338c-2.7,0-4.8,2.2-4.8,4.8
			s2.2,4.8,4.8,4.8h37.8c2.7,0,4.8-2.2,4.8-4.8S378.5,185.4,375.9,185.4z"/>
		<path class="st2" d="M212,185.4h-14.1v-14.1c0-2.7-2.2-4.8-4.8-4.8s-4.8,2.2-4.8,4.8v14.1h-14.1c-2.7,0-4.8,2.2-4.8,4.8
			s2.2,4.8,4.8,4.8H212c2.7,0,4.8-2.2,4.8-4.8S214.7,185.4,212,185.4z"/>
	</g>
</g>
</svg>
