<?xml version="1.0" encoding="utf-8"?>
<!-- Generator: Adobe Illustrator 25.4.1, SVG Export Plug-In . SVG Version: 6.00 Build 0)  -->
<svg version="1.1" id="Layer_1" xmlns="http://www.w3.org/2000/svg" xmlns:xlink="http://www.w3.org/1999/xlink" x="0px" y="0px"
	 viewBox="0 0 529.7 529.2" style="enable-background:new 0 0 529.7 529.2;" xml:space="preserve">
<style type="text/css">
	.st0{fill:#FFFFFF;}
	.st1{opacity:0.5;fill:#0B1760;}
	.st2{fill:none;stroke:#FFFFFF;stroke-width:8;stroke-linecap:round;stroke-linejoin:round;stroke-miterlimit:10;}
	.st3{fill:none;stroke:#FFFFFF;stroke-width:7.4107;stroke-linecap:round;stroke-linejoin:round;stroke-miterlimit:10;}
	.st4{fill:none;stroke:#FFFFFF;stroke-width:7.225;stroke-linejoin:round;stroke-miterlimit:10;}
	.st5{fill:none;stroke:#FFFFFF;stroke-width:7.225;stroke-linecap:round;stroke-linejoin:round;stroke-miterlimit:10;}
</style>
<g>
	<path class="st1" d="M489.8,514.6h-450c-13.8,0-25-11.2-25-25v-450c0-13.8,11.2-25,25-25h450c13.8,0,25,11.2,25,25v450
		C514.8,503.4,503.6,514.6,489.8,514.6z"/>
	<g>
		<polyline class="st2" points="134.9,249.8 400.9,249.8 356.4,319.5 165.8,319.5 121.3,249.8 134.9,249.8 		"/>
		<path class="st2" d="M247.1,249.8c1.5-5.1,2.3-10.5,2.3-16c0-3-0.3-5.9-0.7-8.8h-113c-0.4,2.9-0.7,5.8-0.7,8.8
			c0,5.6,0.8,10.9,2.3,16"/>
		<g>
			<path class="st2" d="M209,206.7h14.2c10,0,18.2,8.2,18.2,18.2"/>
			<path class="st2" d="M142.9,224.9c0-10,8.2-18.2,18.2-18.2h25.4"/>
			<path class="st2" d="M169,206.7c13-2.8,6.4-20,6.4-20s27.4-5.8,33.6,20"/>
		</g>
		<path class="st2" d="M323.1,221l0.2-33.1c0-6.6-7.6-10.4-12.8-6.3l-61.3,48"/>
		<path class="st2" d="M392.4,249.8l15.5-45.1c2.2-6.3-3.9-12.3-10.1-10.1l-86.5,30.5c-5.5,1.9-7.1,9-2.9,13.1l11.6,11.5"/>
		<path class="st2" d="M348.6,212l-26.3-71.7c-2-5.5-9.1-7-13.1-2.8l-55.4,57.3c-4.1,4.2-2.3,11.2,3.2,13l14.1,4.7"/>
		<polyline class="st2" points="121.3,249.8 181.3,286.6 165.8,319.5 		"/>
		<polyline class="st2" points="400.9,249.8 340.9,286.6 356.4,319.5 		"/>
		<path class="st2" d="M271.1,176.8l-20.6-17.1c-4.4-3.6-11-1.2-12.1,4.4l-7.8,42.7"/>
		<path class="st2" d="M380.8,200.7L360.6,166c-2.9-4.9-9.9-4.9-12.8,0l-10,16.9"/>
	</g>
	<g>
		<path class="st0" d="M72.3,400.1c1.8-3.1,4.3-5.6,7.5-7.3c3.2-1.8,6.6-2.6,10.4-2.6c4.3,0,8.1,1.1,11.5,3.2c3.3,2.1,5.8,5.1,7.3,9
			h-7.9c-1-2.1-2.5-3.7-4.4-4.8s-4-1.6-6.4-1.6c-2.7,0-5,0.6-7.1,1.8c-2.1,1.2-3.7,2.9-4.9,5.2c-1.2,2.2-1.8,4.9-1.8,7.8
			c0,3,0.6,5.6,1.8,7.8c1.2,2.2,2.8,4,4.9,5.2c2.1,1.2,4.5,1.8,7.1,1.8c2.4,0,4.6-0.5,6.4-1.6s3.3-2.6,4.4-4.8h7.9
			c-1.5,3.9-3.9,6.8-7.3,8.9c-3.3,2.1-7.2,3.1-11.5,3.1c-3.8,0-7.2-0.9-10.4-2.6c-3.1-1.8-5.6-4.2-7.5-7.3
			c-1.8-3.1-2.8-6.7-2.8-10.6C69.5,406.8,70.4,403.3,72.3,400.1z"/>
		<path class="st0" d="M124.5,429.5c-2.4-1.4-4.4-3.3-5.7-5.8s-2.1-5.4-2.1-8.7c0-3.2,0.7-6.1,2.1-8.6c1.4-2.5,3.4-4.4,5.9-5.8
			c2.5-1.4,5.2-2,8.3-2c3.1,0,5.8,0.7,8.3,2c2.5,1.4,4.4,3.3,5.9,5.8c1.4,2.5,2.1,5.4,2.1,8.6s-0.7,6.1-2.2,8.6
			c-1.5,2.5-3.5,4.5-6,5.8c-2.5,1.4-5.3,2.1-8.4,2.1C129.7,431.5,126.9,430.8,124.5,429.5z M137.5,424.6c1.5-0.8,2.7-2,3.6-3.7
			c0.9-1.6,1.4-3.6,1.4-5.9c0-2.3-0.4-4.3-1.3-5.9c-0.9-1.6-2.1-2.8-3.5-3.6c-1.5-0.8-3.1-1.2-4.8-1.2c-1.7,0-3.3,0.4-4.7,1.2
			c-1.5,0.8-2.6,2-3.5,3.6c-0.9,1.6-1.3,3.6-1.3,5.9c0,3.4,0.9,6.1,2.6,8c1.8,1.9,4,2.8,6.6,2.8C134.4,425.8,136,425.4,137.5,424.6z
			"/>
		<path class="st0" d="M181,400.1c2,1,3.5,2.6,4.7,4.6c1.1,2.1,1.7,4.5,1.7,7.4V431h-6.6v-17.9c0-2.9-0.7-5.1-2.1-6.6
			c-1.4-1.5-3.4-2.3-5.9-2.3c-2.5,0-4.4,0.8-5.9,2.3c-1.5,1.5-2.2,3.7-2.2,6.6V431h-6.6v-32h6.6v3.7c1.1-1.3,2.5-2.3,4.1-3.1
			c1.7-0.7,3.5-1.1,5.4-1.1C176.7,398.5,179,399,181,400.1z"/>
		<path class="st0" d="M197.8,406.3c1.3-2.5,3.2-4.4,5.5-5.8c2.4-1.4,5.1-2,8.1-2c3.9,0,7.1,0.9,9.6,2.8c2.5,1.8,4.2,4.5,5.1,7.9
			H219c-0.6-1.6-1.5-2.8-2.8-3.7c-1.3-0.9-2.9-1.3-4.8-1.3c-2.7,0-4.9,1-6.5,2.9c-1.6,1.9-2.4,4.6-2.4,8s0.8,6.1,2.4,8.1
			c1.6,1.9,3.8,2.9,6.5,2.9c3.8,0,6.4-1.7,7.6-5h7.1c-0.9,3.2-2.7,5.8-5.2,7.7c-2.6,1.9-5.7,2.9-9.5,2.9c-3.1,0-5.8-0.7-8.1-2.1
			c-2.4-1.4-4.2-3.3-5.5-5.8s-2-5.4-2-8.7C195.8,411.7,196.4,408.8,197.8,406.3z"/>
		<path class="st0" d="M264.1,417.5h-24.4c0.2,2.6,1.1,4.6,2.8,6.1c1.7,1.5,3.8,2.3,6.3,2.3c3.6,0,6.1-1.5,7.5-4.5h7.1
			c-1,2.9-2.7,5.3-5.2,7.2c-2.5,1.9-5.7,2.8-9.4,2.8c-3.1,0-5.8-0.7-8.2-2.1c-2.4-1.4-4.3-3.3-5.7-5.8c-1.4-2.5-2.1-5.4-2.1-8.7
			c0-3.3,0.7-6.2,2-8.7s3.2-4.4,5.6-5.8c2.4-1.4,5.2-2,8.3-2c3,0,5.7,0.7,8.1,2c2.4,1.3,4.2,3.2,5.5,5.5s2,5.1,2,8.2
			C264.3,415.4,264.3,416.5,264.1,417.5z M257.4,412.2c0-2.4-0.9-4.4-2.6-5.9c-1.7-1.5-3.8-2.2-6.3-2.2c-2.3,0-4.2,0.7-5.9,2.2
			c-1.6,1.5-2.6,3.4-2.9,5.9H257.4z"/>
		<path class="st0" d="M277.9,430.2c-2-0.9-3.6-2.1-4.7-3.7c-1.2-1.6-1.8-3.3-1.9-5.2h6.8c0.1,1.4,0.8,2.5,1.9,3.4
			c1.2,0.9,2.7,1.4,4.4,1.4c1.9,0,3.3-0.4,4.3-1.1c1-0.7,1.5-1.6,1.5-2.8c0-1.2-0.6-2.1-1.7-2.7c-1.1-0.6-2.9-1.2-5.4-1.9
			c-2.4-0.7-4.3-1.3-5.9-1.9c-1.5-0.6-2.8-1.6-3.9-2.8c-1.1-1.3-1.7-3-1.7-5c0-1.7,0.5-3.3,1.5-4.7c1-1.4,2.4-2.5,4.3-3.3
			c1.9-0.8,4-1.2,6.5-1.2c3.6,0,6.6,0.9,8.8,2.8s3.4,4.3,3.6,7.5h-6.6c-0.1-1.4-0.7-2.6-1.7-3.4s-2.5-1.3-4.2-1.3
			c-1.7,0-3.1,0.3-4,1c-0.9,0.7-1.4,1.5-1.4,2.6c0,0.9,0.3,1.6,0.9,2.1c0.6,0.6,1.4,1,2.3,1.4c0.9,0.3,2.2,0.7,3.9,1.2
			c2.3,0.6,4.2,1.2,5.7,1.9c1.5,0.6,2.8,1.6,3.9,2.8c1.1,1.2,1.6,2.9,1.7,4.9c0,1.8-0.5,3.4-1.5,4.9c-1,1.4-2.4,2.6-4.3,3.4
			c-1.8,0.8-4,1.2-6.5,1.2C282.2,431.5,279.9,431.1,277.9,430.2z"/>
		<path class="st0" d="M311.2,430.2c-2-0.9-3.6-2.1-4.7-3.7c-1.2-1.6-1.8-3.3-1.9-5.2h6.8c0.1,1.4,0.8,2.5,1.9,3.4
			c1.2,0.9,2.7,1.4,4.4,1.4c1.9,0,3.3-0.4,4.3-1.1c1-0.7,1.5-1.6,1.5-2.8c0-1.2-0.6-2.1-1.7-2.7c-1.1-0.6-2.9-1.2-5.4-1.9
			c-2.4-0.7-4.3-1.3-5.9-1.9c-1.5-0.6-2.8-1.6-3.9-2.8c-1.1-1.3-1.7-3-1.7-5c0-1.7,0.5-3.3,1.5-4.7c1-1.4,2.4-2.5,4.3-3.3
			c1.9-0.8,4-1.2,6.5-1.2c3.6,0,6.6,0.9,8.8,2.8s3.4,4.3,3.6,7.5h-6.6c-0.1-1.4-0.7-2.6-1.7-3.4s-2.5-1.3-4.2-1.3
			c-1.7,0-3.1,0.3-4,1c-0.9,0.7-1.4,1.5-1.4,2.6c0,0.9,0.3,1.6,0.9,2.1c0.6,0.6,1.4,1,2.3,1.4c0.9,0.3,2.2,0.7,3.9,1.2
			c2.3,0.6,4.2,1.2,5.7,1.9c1.5,0.6,2.8,1.6,3.9,2.8c1.1,1.2,1.6,2.9,1.7,4.9c0,1.8-0.5,3.4-1.5,4.9c-1,1.4-2.4,2.6-4.3,3.4
			c-1.8,0.8-4,1.2-6.5,1.2C315.4,431.5,313.2,431.1,311.2,430.2z"/>
		<path class="st0" d="M339.9,393.6c-0.8-0.8-1.2-1.8-1.2-3c0-1.2,0.4-2.2,1.2-3c0.8-0.8,1.8-1.2,3-1.2c1.2,0,2.1,0.4,3,1.2
			c0.8,0.8,1.2,1.8,1.2,3c0,1.2-0.4,2.2-1.2,3c-0.8,0.8-1.8,1.2-3,1.2C341.7,394.8,340.7,394.4,339.9,393.6z M346.2,399v32h-6.6v-32
			H346.2z"/>
		<path class="st0" d="M362.8,429.5c-2.4-1.4-4.4-3.3-5.7-5.8s-2.1-5.4-2.1-8.7c0-3.2,0.7-6.1,2.1-8.6c1.4-2.5,3.4-4.4,5.9-5.8
			c2.5-1.4,5.2-2,8.3-2c3.1,0,5.8,0.7,8.3,2c2.5,1.4,4.4,3.3,5.9,5.8c1.4,2.5,2.1,5.4,2.1,8.6s-0.7,6.1-2.2,8.6
			c-1.5,2.5-3.5,4.5-6,5.8c-2.5,1.4-5.3,2.1-8.4,2.1C368,431.5,365.3,430.8,362.8,429.5z M375.8,424.6c1.5-0.8,2.7-2,3.6-3.7
			s1.4-3.6,1.4-5.9c0-2.3-0.4-4.3-1.3-5.9s-2.1-2.8-3.5-3.6c-1.5-0.8-3.1-1.2-4.8-1.2c-1.7,0-3.3,0.4-4.7,1.2
			c-1.5,0.8-2.6,2-3.5,3.6c-0.9,1.6-1.3,3.6-1.3,5.9c0,3.4,0.9,6.1,2.6,8c1.8,1.9,4,2.8,6.6,2.8
			C372.7,425.8,374.3,425.4,375.8,424.6z"/>
		<path class="st0" d="M419.3,400.1c2,1,3.5,2.6,4.7,4.6c1.1,2.1,1.7,4.5,1.7,7.4V431h-6.6v-17.9c0-2.9-0.7-5.1-2.1-6.6
			c-1.4-1.5-3.4-2.3-5.9-2.3c-2.5,0-4.4,0.8-5.9,2.3c-1.5,1.5-2.2,3.7-2.2,6.6V431h-6.6v-32h6.6v3.7c1.1-1.3,2.5-2.3,4.1-3.1
			c1.7-0.7,3.5-1.1,5.4-1.1C415,398.5,417.3,399,419.3,400.1z"/>
		<path class="st0" d="M441.1,430.2c-2-0.9-3.6-2.1-4.7-3.7c-1.2-1.6-1.8-3.3-1.9-5.2h6.8c0.1,1.4,0.8,2.5,1.9,3.4
			c1.2,0.9,2.7,1.4,4.4,1.4c1.9,0,3.3-0.4,4.3-1.1c1-0.7,1.5-1.6,1.5-2.8c0-1.2-0.6-2.1-1.7-2.7c-1.1-0.6-2.9-1.2-5.4-1.9
			c-2.4-0.7-4.3-1.3-5.9-1.9c-1.5-0.6-2.8-1.6-3.9-2.8c-1.1-1.3-1.7-3-1.7-5c0-1.7,0.5-3.3,1.5-4.7c1-1.4,2.4-2.5,4.3-3.3
			c1.9-0.8,4-1.2,6.5-1.2c3.6,0,6.6,0.9,8.8,2.8s3.4,4.3,3.6,7.5h-6.6c-0.1-1.4-0.7-2.6-1.7-3.4s-2.5-1.3-4.2-1.3
			c-1.7,0-3.1,0.3-4,1c-0.9,0.7-1.4,1.5-1.4,2.6c0,0.9,0.3,1.6,0.9,2.1c0.6,0.6,1.4,1,2.3,1.4c0.9,0.3,2.2,0.7,3.9,1.2
			c2.3,0.6,4.2,1.2,5.7,1.9c1.5,0.6,2.8,1.6,3.9,2.8c1.1,1.2,1.6,2.9,1.7,4.9c0,1.8-0.5,3.4-1.5,4.9c-1,1.4-2.4,2.6-4.3,3.4
			c-1.8,0.8-4,1.2-6.5,1.2C445.4,431.5,443.1,431.1,441.1,430.2z"/>
	</g>
</g>
</svg>
