<?xml version="1.0" encoding="utf-8"?>
<!-- Generator: Adobe Illustrator 25.4.1, SVG Export Plug-In . SVG Version: 6.00 Build 0)  -->
<svg version="1.1" id="Layer_1" xmlns="http://www.w3.org/2000/svg" xmlns:xlink="http://www.w3.org/1999/xlink" x="0px" y="0px"
	 viewBox="0 0 529.7 529.2" style="enable-background:new 0 0 529.7 529.2;" xml:space="preserve">
<style type="text/css">
	.st0{fill:#FFFFFF;}
	.st1{opacity:0.5;fill:#0B1760;}
	.st2{fill:none;stroke:#FFFFFF;stroke-width:8;stroke-linecap:round;stroke-linejoin:round;stroke-miterlimit:10;}
	.st3{fill:none;stroke:#FFFFFF;stroke-width:7.4107;stroke-linecap:round;stroke-linejoin:round;stroke-miterlimit:10;}
	.st4{fill:none;stroke:#FFFFFF;stroke-width:7.225;stroke-linejoin:round;stroke-miterlimit:10;}
	.st5{fill:none;stroke:#FFFFFF;stroke-width:7.225;stroke-linecap:round;stroke-linejoin:round;stroke-miterlimit:10;}
</style>
<g>
	<path class="st1" d="M489.8,514.6h-450c-13.8,0-25-11.2-25-25v-450c0-13.8,11.2-25,25-25h450c13.8,0,25,11.2,25,25v450
		C514.8,503.4,503.6,514.6,489.8,514.6z"/>
	<g>
		<path class="st3" d="M371.7,317H250.8c-0.8,0-1.5-0.7-1.5-1.5V194.6c0-0.8,0.7-1.5,1.5-1.5h120.9c0.8,0,1.5,0.7,1.5,1.5v120.9
			C373.2,316.3,372.6,317,371.7,317z"/>
		<path class="st3" d="M228.7,317h-61.9c-5.7,0-10.3-4.6-10.3-10.3V138.9c0-4.3,3.5-7.7,7.7-7.7h149.7c4.3,0,7.7,3.5,7.7,7.7v33.6"
			/>
		<path class="st3" d="M192.6,162.2V126c0-25.7,20.8-46.5,46.5-46.5l0,0c25.7,0,46.5,20.8,46.5,46.5v36.1"/>
		<line class="st3" x1="275.1" y1="162.2" x2="295.8" y2="162.2"/>
		<line class="st3" x1="182.2" y1="162.2" x2="202.9" y2="162.2"/>
		<path class="st3" d="M331.9,218.9v10.3c0,11.4-9.2,20.6-20.6,20.6l0,0c-11.4,0-20.6-9.2-20.6-20.6v-10.3"/>
	</g>
	<g>
		<g>
			<path class="st0" d="M109.2,388.2v40.3h-6.6v-27.6l-12.3,27.6h-4.6l-12.4-27.6v27.6h-6.6v-40.3h7.1L88,419.9l14.1-31.6H109.2z"/>
			<path class="st0" d="M149.2,415h-24.4c0.2,2.6,1.1,4.6,2.8,6.1c1.7,1.5,3.8,2.3,6.3,2.3c3.6,0,6.1-1.5,7.5-4.5h7.1
				c-1,2.9-2.7,5.3-5.2,7.2c-2.5,1.9-5.7,2.8-9.4,2.8c-3.1,0-5.8-0.7-8.2-2.1c-2.4-1.4-4.3-3.3-5.7-5.8c-1.4-2.5-2.1-5.4-2.1-8.7
				c0-3.3,0.7-6.2,2-8.7s3.2-4.4,5.6-5.8c2.4-1.4,5.2-2,8.3-2c3,0,5.7,0.7,8.1,2c2.4,1.3,4.2,3.2,5.5,5.5c1.3,2.4,2,5.1,2,8.2
				C149.5,413,149.4,414.1,149.2,415z M142.6,409.7c0-2.4-0.9-4.4-2.6-5.9c-1.7-1.5-3.8-2.2-6.3-2.2c-2.3,0-4.2,0.7-5.9,2.2
				c-1.6,1.5-2.6,3.4-2.9,5.9H142.6z"/>
			<path class="st0" d="M168.7,397.4c1.6-0.9,3.5-1.4,5.7-1.4v6.8h-1.7c-2.6,0-4.6,0.7-5.9,2c-1.3,1.3-2,3.6-2,6.8v16.8h-6.6v-32
				h6.6v4.6C165.8,399.6,167.1,398.3,168.7,397.4z"/>
			<path class="st0" d="M182.6,403.9c1.3-2.5,3.2-4.4,5.5-5.8c2.4-1.4,5.1-2,8.1-2c3.9,0,7.1,0.9,9.6,2.8c2.5,1.8,4.2,4.5,5.1,7.9
				h-7.1c-0.6-1.6-1.5-2.8-2.8-3.7c-1.3-0.9-2.9-1.3-4.8-1.3c-2.7,0-4.9,1-6.5,2.9s-2.4,4.6-2.4,8s0.8,6.1,2.4,8.1
				c1.6,1.9,3.8,2.9,6.5,2.9c3.8,0,6.4-1.7,7.6-5h7.1c-0.9,3.2-2.7,5.8-5.2,7.7s-5.7,2.9-9.5,2.9c-3.1,0-5.8-0.7-8.1-2.1
				c-2.4-1.4-4.2-3.3-5.5-5.8s-2-5.4-2-8.7C180.6,409.3,181.2,406.4,182.6,403.9z"/>
			<path class="st0" d="M242.9,397.6c1.9,1,3.4,2.6,4.5,4.6c1.1,2.1,1.7,4.5,1.7,7.4v18.8h-6.6v-17.9c0-2.9-0.7-5.1-2.1-6.6
				c-1.4-1.5-3.4-2.3-5.9-2.3c-2.5,0-4.4,0.8-5.9,2.3c-1.5,1.5-2.2,3.7-2.2,6.6v17.9h-6.6v-42.9h6.6v14.7c1.1-1.4,2.5-2.4,4.3-3.1
				c1.7-0.7,3.6-1.1,5.7-1.1C238.8,396.1,241,396.6,242.9,397.6z"/>
			<path class="st0" d="M259.5,403.9c1.3-2.5,3.2-4.4,5.5-5.8c2.3-1.4,4.8-2.1,7.6-2.1c2.5,0,4.7,0.5,6.6,1.5c1.9,1,3.4,2.2,4.5,3.7
				v-4.6h6.7v32h-6.7v-4.8c-1.1,1.5-2.6,2.8-4.6,3.8s-4.1,1.5-6.6,1.5c-2.7,0-5.3-0.7-7.5-2.1c-2.3-1.4-4.1-3.4-5.4-5.9
				s-2-5.4-2-8.6C257.5,409.2,258.2,406.4,259.5,403.9z M282.3,406.8c-0.9-1.6-2.1-2.9-3.6-3.7c-1.5-0.9-3.1-1.3-4.8-1.3
				c-1.7,0-3.3,0.4-4.8,1.2c-1.5,0.8-2.7,2-3.6,3.7c-0.9,1.6-1.4,3.5-1.4,5.7s0.5,4.1,1.4,5.8c0.9,1.7,2.1,2.9,3.6,3.8
				c1.5,0.9,3.1,1.3,4.7,1.3c1.7,0,3.3-0.4,4.8-1.3c1.5-0.8,2.7-2.1,3.6-3.7c0.9-1.6,1.4-3.6,1.4-5.8S283.2,408.4,282.3,406.8z"/>
			<path class="st0" d="M324.2,397.6c2,1,3.5,2.6,4.7,4.6c1.1,2.1,1.7,4.5,1.7,7.4v18.8H324v-17.9c0-2.9-0.7-5.1-2.1-6.6
				c-1.4-1.5-3.4-2.3-5.9-2.3c-2.5,0-4.4,0.8-5.9,2.3c-1.5,1.5-2.2,3.7-2.2,6.6v17.9h-6.6v-32h6.6v3.7c1.1-1.3,2.5-2.3,4.1-3.1
				c1.7-0.7,3.5-1.1,5.4-1.1C319.9,396.1,322.2,396.6,324.2,397.6z"/>
			<path class="st0" d="M341,403.9c1.3-2.5,3.2-4.4,5.5-5.8c2.3-1.4,4.9-2.1,7.7-2.1c2.1,0,4.1,0.5,6.2,1.4c2,0.9,3.6,2.1,4.8,3.6
				v-15.4h6.7v42.9h-6.7v-4.8c-1.1,1.5-2.6,2.8-4.5,3.8s-4.1,1.5-6.6,1.5c-2.8,0-5.3-0.7-7.6-2.1c-2.3-1.4-4.1-3.4-5.5-5.9
				s-2-5.4-2-8.6C339,409.2,339.7,406.4,341,403.9z M363.8,406.8c-0.9-1.6-2.1-2.9-3.6-3.7c-1.5-0.9-3.1-1.3-4.8-1.3
				c-1.7,0-3.3,0.4-4.8,1.2c-1.5,0.8-2.7,2-3.6,3.7c-0.9,1.6-1.4,3.5-1.4,5.7s0.5,4.1,1.4,5.8c0.9,1.7,2.1,2.9,3.6,3.8
				c1.5,0.9,3.1,1.3,4.7,1.3c1.7,0,3.3-0.4,4.8-1.3c1.5-0.8,2.7-2.1,3.6-3.7c0.9-1.6,1.4-3.6,1.4-5.8S364.7,408.4,363.8,406.8z"/>
			<path class="st0" d="M383.1,391.1c-0.8-0.8-1.2-1.8-1.2-3c0-1.2,0.4-2.2,1.2-3c0.8-0.8,1.8-1.2,3-1.2c1.2,0,2.1,0.4,3,1.2
				c0.8,0.8,1.2,1.8,1.2,3c0,1.2-0.4,2.2-1.2,3c-0.8,0.8-1.8,1.2-3,1.2C385,392.4,384,392,383.1,391.1z M389.4,396.6v32h-6.6v-32
				H389.4z"/>
			<path class="st0" d="M405.2,427.7c-2-0.9-3.6-2.1-4.7-3.7c-1.2-1.6-1.8-3.3-1.9-5.2h6.8c0.1,1.4,0.8,2.5,1.9,3.4
				c1.2,0.9,2.7,1.4,4.4,1.4c1.9,0,3.3-0.4,4.3-1.1c1-0.7,1.5-1.6,1.5-2.8c0-1.2-0.6-2.1-1.7-2.7c-1.1-0.6-2.9-1.2-5.4-1.9
				c-2.4-0.7-4.3-1.3-5.9-1.9c-1.5-0.6-2.8-1.6-3.9-2.8c-1.1-1.3-1.7-3-1.7-5c0-1.7,0.5-3.3,1.5-4.7c1-1.4,2.4-2.5,4.3-3.3
				c1.9-0.8,4-1.2,6.5-1.2c3.6,0,6.6,0.9,8.8,2.8s3.4,4.3,3.6,7.5h-6.6c-0.1-1.4-0.7-2.6-1.7-3.4s-2.5-1.3-4.2-1.3
				c-1.7,0-3.1,0.3-4,1c-0.9,0.7-1.4,1.5-1.4,2.6c0,0.9,0.3,1.6,0.9,2.1c0.6,0.6,1.4,1,2.3,1.4c0.9,0.3,2.2,0.7,3.9,1.2
				c2.3,0.6,4.2,1.2,5.7,1.9c1.5,0.6,2.8,1.6,3.9,2.8c1.1,1.2,1.6,2.9,1.7,4.9c0,1.8-0.5,3.4-1.5,4.9c-1,1.4-2.4,2.6-4.3,3.4
				c-1.8,0.8-4,1.2-6.5,1.2C409.5,429.1,407.2,428.6,405.2,427.7z"/>
			<path class="st0" d="M462.7,415h-24.4c0.2,2.6,1.1,4.6,2.8,6.1c1.7,1.5,3.8,2.3,6.3,2.3c3.6,0,6.1-1.5,7.5-4.5h7.1
				c-1,2.9-2.7,5.3-5.2,7.2c-2.5,1.9-5.7,2.8-9.4,2.8c-3.1,0-5.8-0.7-8.2-2.1c-2.4-1.4-4.3-3.3-5.7-5.8c-1.4-2.5-2.1-5.4-2.1-8.7
				c0-3.3,0.7-6.2,2-8.7s3.2-4.4,5.6-5.8c2.4-1.4,5.2-2,8.3-2c3,0,5.7,0.7,8.1,2c2.4,1.3,4.2,3.2,5.5,5.5s2,5.1,2,8.2
				C462.9,413,462.8,414.1,462.7,415z M456,409.7c0-2.4-0.9-4.4-2.6-5.9c-1.7-1.5-3.8-2.2-6.3-2.2c-2.3,0-4.2,0.7-5.9,2.2
				c-1.6,1.5-2.6,3.4-2.9,5.9H456z"/>
		</g>
	</g>
</g>
</svg>
