<?xml version="1.0" encoding="utf-8"?>
<!-- Generator: Adobe Illustrator 25.4.1, SVG Export Plug-In . SVG Version: 6.00 Build 0)  -->
<svg version="1.1" xmlns="http://www.w3.org/2000/svg" xmlns:xlink="http://www.w3.org/1999/xlink" x="0px" y="0px"
	 viewBox="0 0 496.6 112.5" style="enable-background:new 0 0 496.6 112.5;" xml:space="preserve">
<style type="text/css">
	.st0{fill:#FFFFFF;stroke:#2D43FF;stroke-width:5;stroke-linecap:round;stroke-linejoin:round;stroke-miterlimit:10;}
	.st1{fill:none;stroke:#2D43FF;stroke-width:2.7694;stroke-linecap:round;stroke-linejoin:round;stroke-miterlimit:10;}
	.st2{fill:#2D43FF;}
	.st3{fill:none;stroke:#2D43FF;stroke-width:2.3537;stroke-linecap:round;stroke-linejoin:round;stroke-miterlimit:10;}
	.st4{fill:none;stroke:#2D43FF;stroke-width:1.8463;stroke-linecap:round;stroke-linejoin:round;stroke-miterlimit:10;}
	.st5{fill:#494949;stroke:#2D43FF;stroke-width:0.9231;stroke-miterlimit:10;}
</style>
<g id="Background">
</g>
<g id="Icons">
	<g>
		<line class="st0" x1="294" y1="56.3" x2="382.6" y2="56.3"/>
		<line class="st0" x1="112.8" y1="56.3" x2="185.3" y2="56.3"/>
		<g>
			<circle class="st1" cx="436.4" cy="56.3" r="52.4"/>
			<g>
				<g>
					<path class="st2" d="M429.3,78.3c-0.1-0.2-0.2-0.4-0.2-0.6c0-0.2,0.1-0.5,0.2-0.6c0.1-0.2,0.3-0.3,0.4-0.3h1.3l0.3-1.5h-1
						c-0.2,0-0.3-0.1-0.4-0.2c-0.1-0.1-0.2-0.3-0.2-0.6c0-0.2,0.1-0.5,0.2-0.6c0.1-0.2,0.3-0.3,0.4-0.3h1.3l0.4-1.9
						c0-0.1,0.1-0.2,0.3-0.3c0.2-0.1,0.4-0.1,0.6-0.1c0.3,0,0.5,0.1,0.7,0.2c0.2,0.1,0.3,0.3,0.3,0.6l-0.3,1.5h1.4l0.4-1.9
						c0-0.1,0.1-0.2,0.3-0.3c0.2-0.1,0.4-0.1,0.6-0.1c0.3,0,0.5,0.1,0.7,0.2c0.2,0.1,0.3,0.3,0.3,0.6l-0.3,1.5h1
						c0.2,0,0.3,0.1,0.4,0.2c0.1,0.2,0.2,0.4,0.2,0.6c0,0.2-0.1,0.4-0.2,0.6c-0.1,0.2-0.3,0.2-0.4,0.2h-1.3l-0.3,1.5h1
						c0.2,0,0.3,0.1,0.4,0.3c0.1,0.2,0.2,0.4,0.2,0.6c0,0.2-0.1,0.4-0.2,0.6c-0.1,0.2-0.3,0.2-0.4,0.2h-1.3l-0.4,2
						c0,0.1-0.1,0.2-0.3,0.3c-0.2,0.1-0.4,0.1-0.5,0.1c-0.3,0-0.5-0.1-0.7-0.2c-0.2-0.1-0.3-0.3-0.3-0.5l0.3-1.7h-1.4l-0.4,2
						c0,0.1-0.1,0.2-0.3,0.3c-0.2,0.1-0.4,0.1-0.5,0.1c-0.3,0-0.5-0.1-0.7-0.2c-0.2-0.1-0.3-0.3-0.3-0.5l0.3-1.7h-1
						C429.6,78.5,429.4,78.5,429.3,78.3z M433,76.8h1.4l0.3-1.5h-1.4L433,76.8z"/>
					<path class="st2" d="M440.5,73.1c0-0.3,0.1-0.6,0.4-0.7l1.9-1.1c0.1-0.1,0.2-0.1,0.4-0.1c0.2,0,0.5,0.1,0.7,0.2
						c0.2,0.1,0.3,0.3,0.3,0.5v9c0,0.2-0.1,0.4-0.3,0.5c-0.2,0.1-0.5,0.2-0.8,0.2c-0.3,0-0.6-0.1-0.8-0.2c-0.2-0.1-0.3-0.3-0.3-0.5
						v-7.2l-0.4,0.3c-0.1,0.1-0.2,0.1-0.4,0.1c-0.2,0-0.4-0.1-0.5-0.3C440.5,73.5,440.5,73.3,440.5,73.1z"/>
				</g>
				<path class="st3" d="M428.1,60c0,2-1.6,3.5-3.5,3.5c-1.9,0-3.5-1.6-3.5-3.5v-7.1c0-2,1.6-3.5,3.5-3.5c1.9,0,3.5,1.6,3.5,3.5V60z
					"/>
				<path class="st3" d="M428.1,60c0,2-1.6,3.5-3.5,3.5c-1.9,0-3.5-1.6-3.5-3.5v-7.1c0-2,1.6-3.5,3.5-3.5c1.9,0,3.5,1.6,3.5,3.5V60z
					"/>
				<path class="st3" d="M443.4,60.3l-8.2-4c-0.9-0.4-1.5-1.2-1.8-2.1c-0.3-0.9-0.2-1.9,0.2-2.7c0.9-1.7,3-2.4,4.7-1.5l11,5.4"/>
				<path class="st3" d="M435.2,56.5L435.2,56.5c0,2-1.6,3.5-3.5,3.5c-2,0-3.5-1.6-3.5-3.5v-7.1c0-2,1.6-3.5,3.5-3.5
					c2,0,3.5,1.7,3.5,3.6"/>
				<path class="st3" d="M435.2,49.4L435.2,49.4v-3.5c0-2,1.6-3.5,3.5-3.5c2,0,3.5,1.6,3.5,3.5v5.9"/>
				<path class="st3" d="M421.1,60v7.1c0,3.9,2,7.4,3.5,11c1.2,2.8,1.2,5.9,1.2,6.7h22.4c0-9.4,3.6-7.4,3.6-17.5
					c0-10.1-2.4-12-2.4-12V29.4c0-2-1.6-3.5-3.5-3.5c-1.9,0-3.5,1.6-3.5,3.5v15.3"/>
				<path class="st3" d="M440.3,58.8c-0.3,0.7-0.4,1.5-0.4,2.4c0,2.6,1.4,4.9,3.6,6.1"/>
				<path class="st3" d="M447,54.1C446.9,54.1,447,54.1,447,54.1"/>
				<path class="st3" d="M448.1,84.7h4.7c0-3.6,0.5-4.8,1.3-6.4c1-2.2,2.3-4.9,2.3-11.1c0-7.1-1.1-11.1-2.4-13.5V29.4
					c0-4.5-3.7-8.2-8.2-8.2c-4.5,0-8.2,3.7-8.2,8.2v8.2c-1.2,0-4,0.4-5.9,3.5c-4.3,0-7.1,3.5-7.1,3.5c-4.5,0-8.2,3.7-8.2,8.2V60"/>
				<path class="st3" d="M425.8,84.7h-4.7c0-2.4-0.4-4-0.8-4.8c-0.3-0.6-0.6-1.3-0.8-1.9c-1.4-3.2-3.1-6.7-3.1-10.9V60"/>
			</g>
		</g>
		<g>
			<circle class="st1" cx="59.4" cy="56.3" r="52.4"/>
			<g>
				<g>
					<path class="st4" d="M79.3,62.7L79.3,62.7c0-0.1,0-0.1,0-0.2c0,0,0,0,0,0c0-0.3-0.1-0.5-0.3-0.7c-0.2-0.2-0.5-0.3-0.7-0.3h0
						c-0.1,0-0.1,0-0.2,0l0,0"/>
					<path class="st4" d="M68.2,71.2C68.2,71.2,68.2,71.2,68.2,71.2c0,0.1,0,0.1,0,0.2c0,0,0,0,0,0c0,0,0,0,0,0
						c0,0.3,0.1,0.5,0.3,0.7c0.2,0.2,0.4,0.3,0.7,0.3c0,0,0,0,0,0c0,0,0,0,0,0c0.1,0,0.1,0,0.2,0c0,0,0,0,0,0"/>
					<path class="st4" d="M79.3,62.5C79.3,62.5,79.3,62.5,79.3,62.5c0,0.1,0,0.1,0,0.2v0c0.1,2.5-0.8,5.1-2.8,7
						c-1.9,1.9-4.5,2.9-7,2.8c0,0,0,0,0,0c-0.1,0-0.1,0-0.2,0c0,0,0,0,0,0c0,0,0,0,0,0"/>
					<path class="st4" d="M68.2,71.4C68.2,71.4,68.2,71.4,68.2,71.4C68.2,71.4,68.2,71.4,68.2,71.4c0-0.1,0-0.1,0-0.2c0,0,0,0,0,0
						c-0.1-2.5,0.8-5.1,2.8-7c1.9-1.9,4.5-2.9,7-2.8l0,0c0.1,0,0.1,0,0.2,0h0"/>
					<line class="st4" x1="76.5" y1="64.2" x2="71" y2="69.7"/>
					<line class="st4" x1="72.8" y1="69.7" x2="71" y2="67.9"/>
					<line class="st4" x1="74.7" y1="67.9" x2="72.8" y2="66"/>
					<line class="st4" x1="76.5" y1="66" x2="74.7" y2="64.2"/>
				</g>
				<polygon class="st4" points="59,42 36.8,42 35,45.7 60.8,45.7 				"/>
				<polyline class="st4" points="57.1,42 55.3,38.3 40.5,38.3 38.7,42 				"/>
				<polyline class="st4" points="47.9,38.3 49.8,29.1 58.1,26.3 				"/>
				<polyline class="st4" points="59,45.7 56.2,76.2 39.6,76.2 36.8,45.7 				"/>
				<line class="st4" x1="58.1" y1="51.3" x2="37.8" y2="51.3"/>
				<line class="st4" x1="56.2" y1="70.6" x2="39.6" y2="70.6"/>
				<line class="st4" x1="42.1" y1="64.2" x2="41.4" y2="56"/>
				<line class="st4" x1="45.1" y1="57.7" x2="52.5" y2="57.7"/>
				<line class="st4" x1="45.1" y1="62.3" x2="52.5" y2="62.3"/>
				<polyline class="st4" points="65.5,54 61.8,57.7 65.5,76.2 82.1,76.2 84.8,54 65.5,54 67.3,63.3 				"/>
				<polyline class="st4" points="74.7,52.2 77.5,42 81.1,43 80.3,47.6 				"/>
				<polyline class="st4" points="74.7,54 74.7,41.1 71,41.1 71,45.7 				"/>
				<polyline class="st4" points="82.1,54 83.9,48.5 80.2,47.6 78.4,54 				"/>
				<polyline class="st4" points="69.1,45.7 68.2,42 64.5,43 67.3,51.3 				"/>
				<polyline class="st4" points="71,54 71.9,46.7 68.2,45.7 67.3,54 				"/>
				<polyline class="st4" points="63.6,55 61.8,51.3 64.5,49.4 66.4,53.1 				"/>
			</g>
		</g>
		<g>
			<circle class="st1" cx="239.7" cy="56.3" r="52.4"/>
			<g>
				<path class="st4" d="M242.4,59.6L242.4,59.6c0-0.1,0-0.2,0-0.2c0,0,0,0,0,0c0-0.3-0.2-0.6-0.4-0.8c-0.2-0.2-0.5-0.4-0.8-0.4h0
					c-0.1,0-0.2,0-0.2,0l0,0"/>
				<path class="st4" d="M229.5,69.5C229.5,69.5,229.5,69.5,229.5,69.5c0,0.1,0,0.2,0,0.3c0,0,0,0,0,0s0,0,0,0
					c0,0.3,0.2,0.6,0.4,0.8c0.2,0.2,0.5,0.4,0.8,0.4c0,0,0,0,0,0c0,0,0,0,0,0c0.1,0,0.2,0,0.2,0c0,0,0,0,0,0"/>
				<path class="st4" d="M242.4,59.4C242.4,59.4,242.4,59.4,242.4,59.4c0,0.1,0,0.2,0,0.2v0c0.1,3-1,6-3.2,8.2
					c-2.3,2.3-5.2,3.3-8.2,3.2c0,0,0,0,0,0c-0.1,0-0.2,0-0.2,0c0,0,0,0,0,0c0,0,0,0,0,0"/>
				<path class="st4" d="M229.5,69.8C229.5,69.8,229.5,69.8,229.5,69.8C229.5,69.8,229.5,69.8,229.5,69.8c0-0.1,0-0.2,0-0.2
					c0,0,0,0,0,0c-0.1-3,1-5.9,3.2-8.2c2.3-2.3,5.3-3.3,8.2-3.2l0,0c0.1,0,0.2,0,0.2,0h0"/>
				<line class="st4" x1="239.2" y1="61.3" x2="232.7" y2="67.8"/>
				<line class="st4" x1="234.9" y1="67.8" x2="232.7" y2="65.6"/>
				<line class="st4" x1="237.1" y1="65.6" x2="234.9" y2="63.5"/>
				<line class="st4" x1="239.2" y1="63.5" x2="237.1" y2="61.3"/>
				<circle class="st5" cx="224.9" cy="56.3" r="0.9"/>
				<circle class="st5" cx="224.9" cy="59" r="0.9"/>
				<circle class="st5" cx="224.9" cy="61.8" r="0.9"/>
				<circle class="st5" cx="224.9" cy="64.6" r="0.9"/>
				<circle class="st5" cx="224.9" cy="67.3" r="0.9"/>
				<circle class="st5" cx="224.9" cy="70.1" r="0.9"/>
				<circle class="st5" cx="224.9" cy="72.9" r="0.9"/>
				<path class="st4" d="M214.7,75.6c0-1.8,3.7-1.8,3.7-3.7c0-1.8-3.7-1.8-3.7-3.7c0-1.8,3.7-1.8,3.7-3.7c0-1.8-3.7-1.8-3.7-3.7
					c0-1.8,3.7-1.8,3.7-3.7c0-1.8-3.7-1.8-3.7-3.7h49.8c0,1.8-3.7,1.8-3.7,3.7c0,1.8,3.7,1.8,3.7,3.7s-3.7,1.8-3.7,3.7
					c0,1.8,3.7,1.8,3.7,3.7c0,1.8-3.7,1.8-3.7,3.7c0,1.8,3.7,1.8,3.7,3.7H214.7z"/>
				<line class="st4" x1="221.2" y1="58.1" x2="221.2" y2="71"/>
				<line class="st4" x1="248" y1="58.1" x2="257.2" y2="58.1"/>
				<line class="st4" x1="247.1" y1="62.7" x2="257.2" y2="62.7"/>
				<line class="st4" x1="245.2" y1="67.3" x2="257.2" y2="67.3"/>
				<line class="st4" x1="243.4" y1="71.9" x2="257.2" y2="71.9"/>
				<path class="st4" d="M236.7,46.1L236.7,46.1c-0.1-0.1-0.1-0.1-0.2-0.2c0,0,0,0,0,0c-0.2-0.2-0.6-0.3-0.9-0.3
					c-0.3,0-0.7,0.1-0.9,0.3l0,0c-0.1,0-0.1,0.1-0.2,0.2l0,0"/>
				<path class="st4" d="M240.3,53.5c-0.1-1.3-0.4-2.6-0.9-3.7c-0.6-1.4-1.5-2.6-2.7-3.6c-0.1-0.1-0.1-0.1-0.2-0.2l0,0"/>
				<path class="st4" d="M234.7,45.9c-0.1,0-0.1,0.1-0.2,0.2c-2.1,1.9-3.4,4.5-3.6,7.4"/>
				<polyline class="st4" points="235.1,53.5 235.1,51.2 235.1,49.8 				"/>
				<line class="st4" x1="236" y1="50.7" x2="234.1" y2="50.7"/>
				<path class="st4" d="M220.3,53.5l28.1-27.7c1.4,1.3-1.3,4,0,5.3c1.4,1.3,4-1.3,5.4,0c1.4,1.3-1.3,4,0,5.3c1.4,1.3,4-1.3,5.4,0
					c1.4,1.3-1.3,4,0,5.3c1.4,1.3,4-1.3,5.4,0l-12,11.8"/>
				<line class="st4" x1="239.7" y1="41" x2="246.4" y2="34.4"/>
				<line class="st4" x1="242.4" y1="45" x2="249.8" y2="37.7"/>
				<line class="st4" x1="245.2" y1="48.8" x2="253.1" y2="41"/>
				<line class="st4" x1="256.5" y1="44.4" x2="250" y2="50.7"/>
			</g>
		</g>
	</g>
</g>
<g id="Text">
</g>
</svg>
