<?xml version="1.0" encoding="utf-8"?>
<!-- Generator: Adobe Illustrator 25.4.1, SVG Export Plug-In . SVG Version: 6.00 Build 0)  -->
<svg version="1.1" id="Layer_1" xmlns="http://www.w3.org/2000/svg" xmlns:xlink="http://www.w3.org/1999/xlink" x="0px" y="0px"
	 viewBox="0 0 529.7 529.2" style="enable-background:new 0 0 529.7 529.2;" xml:space="preserve">
<style type="text/css">
	.st0{fill:#FFFFFF;}
	.st1{opacity:0.5;fill:#0B1760;}
	.st2{fill:none;stroke:#FFFFFF;stroke-width:8;stroke-linecap:round;stroke-linejoin:round;stroke-miterlimit:10;}
	.st3{fill:none;stroke:#FFFFFF;stroke-width:7.4107;stroke-linecap:round;stroke-linejoin:round;stroke-miterlimit:10;}
	.st4{fill:none;stroke:#FFFFFF;stroke-width:7.225;stroke-linejoin:round;stroke-miterlimit:10;}
	.st5{fill:none;stroke:#FFFFFF;stroke-width:7.225;stroke-linecap:round;stroke-linejoin:round;stroke-miterlimit:10;}
</style>
<g>
	<path class="st1" d="M489.8,514.6h-450c-13.8,0-25-11.2-25-25v-450c0-13.8,11.2-25,25-25h450c13.8,0,25,11.2,25,25v450
		C514.8,503.4,503.6,514.6,489.8,514.6z"/>
	<g>
		<path class="st4" d="M371.5,166.7H158.1c-5.6,0-10.2,4.5-10.2,10.2v38.2c0,1.4,1.1,2.4,2.4,2.5c12.9,1.2,23,12.1,23,25.3
			c0,13.2-10.1,24.1-23,25.3c-1.3,0.1-2.4,1.2-2.4,2.5V309c0,5.6,4.5,10.2,10.2,10.2h213.4c5.6,0,10.2-4.5,10.2-10.2V176.9
			C381.7,171.2,377.2,166.7,371.5,166.7z"/>
		<line class="st4" x1="214" y1="181.9" x2="214" y2="197.2"/>
		<line class="st4" x1="214" y1="207.3" x2="214" y2="222.6"/>
		<line class="st4" x1="214" y1="232.8" x2="214" y2="248"/>
		<line class="st4" x1="214" y1="258.2" x2="214" y2="273.4"/>
		<line class="st4" x1="214" y1="283.6" x2="214" y2="298.8"/>
		<path class="st0" d="M264.5,240.5c-3.2-3.5-4.8-8.1-4.8-14c0-5.8,1.6-10.5,4.8-14c3.2-3.5,7.3-5.2,12.4-5.2
			c5.1,0,9.2,1.7,12.3,5.2c3.2,3.5,4.7,8.1,4.7,14c0,5.8-1.6,10.5-4.7,14c-3.2,3.5-7.3,5.2-12.3,5.2
			C271.9,245.7,267.7,244,264.5,240.5z M282.2,234.8c1.3-1.9,1.9-4.6,1.9-8.2s-0.6-6.4-1.9-8.2c-1.3-1.9-3-2.8-5.3-2.8
			c-2.2,0-3.9,0.9-5.2,2.8c-1.3,1.9-2,4.6-2,8.2c0,3.6,0.7,6.3,2,8.2c1.3,1.9,3.1,2.8,5.2,2.8C279.2,237.6,280.9,236.6,282.2,234.8z
			 M318.1,208.1h11.8l-47.2,69.5h-11.8L318.1,208.1z M315,276.2c-2.6-1.6-4.6-3.8-6.1-6.7c-1.4-2.9-2.2-6.3-2.2-10.1
			c0-3.8,0.7-7.2,2.2-10.1c1.4-2.9,3.5-5.2,6.1-6.7c2.6-1.6,5.5-2.3,8.8-2.3c5.1,0,9.2,1.7,12.4,5.2c3.2,3.5,4.8,8.1,4.8,14
			c0,5.8-1.6,10.5-4.8,14c-3.2,3.5-7.3,5.2-12.4,5.2C320.6,278.5,317.6,277.7,315,276.2z M329.1,267.5c1.3-1.9,1.9-4.6,1.9-8.2
			c0-3.6-0.6-6.3-1.9-8.2c-1.3-1.9-3-2.8-5.3-2.8c-2.2,0-3.9,0.9-5.2,2.8c-1.3,1.9-2,4.6-2,8.2c0,3.6,0.7,6.4,2,8.2
			c1.3,1.9,3.1,2.8,5.2,2.8C326.1,270.3,327.9,269.4,329.1,267.5z"/>
		<path class="st5" d="M356.3,146.4L186.6,116c-5.3-1-10.4,2.6-11.3,8l-3.9,22.3"/>
	</g>
	<g>
		<g>
			<path class="st0" d="M118.2,408.2c-1,1.8-2.5,3.3-4.6,4.4c-2.1,1.1-4.9,1.7-8.2,1.7H98v16.4h-6.6v-40.3h13.9
				c3.1,0,5.7,0.5,7.9,1.6c2.1,1.1,3.8,2.5,4.8,4.3c1.1,1.8,1.6,3.8,1.6,6.1C119.6,404.4,119.1,406.4,118.2,408.2z M111,407.2
				c1.2-1.1,1.9-2.8,1.9-4.8c0-4.4-2.5-6.6-7.5-6.6H98v13.2h7.3C107.9,408.9,109.7,408.4,111,407.2z"/>
			<path class="st0" d="M138.7,399.6c1.6-0.9,3.5-1.4,5.7-1.4v6.8h-1.7c-2.6,0-4.6,0.7-5.9,2c-1.3,1.3-2,3.6-2,6.8v16.8h-6.6v-32
				h6.6v4.6C135.8,401.7,137.1,400.5,138.7,399.6z"/>
			<path class="st0" d="M158.4,429.1c-2.4-1.4-4.3-3.3-5.7-5.8c-1.4-2.5-2.1-5.4-2.1-8.7c0-3.2,0.7-6.1,2.1-8.6
				c1.4-2.5,3.4-4.4,5.9-5.8c2.5-1.4,5.2-2,8.3-2s5.8,0.7,8.3,2c2.5,1.4,4.4,3.3,5.9,5.8c1.4,2.5,2.1,5.4,2.1,8.6s-0.7,6.1-2.2,8.6
				c-1.5,2.5-3.5,4.5-6,5.8c-2.5,1.4-5.3,2.1-8.4,2.1C163.6,431.2,160.9,430.5,158.4,429.1z M171.4,424.2c1.5-0.8,2.7-2,3.6-3.7
				s1.4-3.6,1.4-5.9c0-2.3-0.4-4.3-1.3-5.9c-0.9-1.6-2.1-2.8-3.5-3.6c-1.5-0.8-3.1-1.2-4.8-1.2c-1.7,0-3.3,0.4-4.7,1.2
				c-1.5,0.8-2.6,2-3.5,3.6s-1.3,3.6-1.3,5.9c0,3.4,0.9,6.1,2.6,8c1.8,1.9,4,2.8,6.6,2.8C168.3,425.5,169.9,425,171.4,424.2z"/>
			<path class="st0" d="M237.5,399.8c2,1,3.6,2.6,4.7,4.6c1.1,2.1,1.7,4.5,1.7,7.4v18.8h-6.6v-17.9c0-2.9-0.7-5.1-2.1-6.6
				c-1.4-1.5-3.4-2.3-5.9-2.3s-4.4,0.8-5.9,2.3c-1.5,1.5-2.2,3.7-2.2,6.6v17.9h-6.6v-17.9c0-2.9-0.7-5.1-2.1-6.6
				c-1.4-1.5-3.4-2.3-5.9-2.3s-4.4,0.8-5.9,2.3c-1.5,1.5-2.2,3.7-2.2,6.6v17.9H192v-32h6.6v3.7c1.1-1.3,2.5-2.3,4.1-3.1
				c1.7-0.7,3.4-1.1,5.3-1.1c2.6,0,4.8,0.5,6.8,1.6c2,1.1,3.6,2.6,4.6,4.7c1-1.9,2.5-3.5,4.5-4.6c2-1.1,4.3-1.7,6.6-1.7
				C233.2,398.2,235.5,398.7,237.5,399.8z"/>
			<path class="st0" d="M260.2,429.1c-2.4-1.4-4.3-3.3-5.7-5.8c-1.4-2.5-2.1-5.4-2.1-8.7c0-3.2,0.7-6.1,2.1-8.6
				c1.4-2.5,3.4-4.4,5.9-5.8c2.5-1.4,5.2-2,8.3-2c3.1,0,5.8,0.7,8.3,2c2.5,1.4,4.4,3.3,5.9,5.8c1.4,2.5,2.1,5.4,2.1,8.6
				s-0.7,6.1-2.2,8.6c-1.5,2.5-3.5,4.5-6,5.8c-2.5,1.4-5.3,2.1-8.4,2.1C265.4,431.2,262.7,430.5,260.2,429.1z M273.2,424.2
				c1.5-0.8,2.7-2,3.6-3.7s1.4-3.6,1.4-5.9c0-2.3-0.4-4.3-1.3-5.9s-2.1-2.8-3.5-3.6c-1.5-0.8-3.1-1.2-4.8-1.2s-3.3,0.4-4.7,1.2
				c-1.5,0.8-2.6,2-3.5,3.6s-1.3,3.6-1.3,5.9c0,3.4,0.9,6.1,2.6,8c1.8,1.9,4,2.8,6.6,2.8C270.1,425.5,271.7,425,273.2,424.2z"/>
			<path class="st0" d="M301.5,404.1v17.7c0,1.2,0.3,2.1,0.8,2.6c0.6,0.5,1.5,0.8,2.9,0.8h4.1v5.5h-5.2c-3,0-5.3-0.7-6.8-2.1
				c-1.6-1.4-2.4-3.7-2.4-6.8v-17.7h-3.8v-5.4h3.8v-7.9h6.7v7.9h7.8v5.4H301.5z"/>
			<path class="st0" d="M318,393.3c-0.8-0.8-1.2-1.8-1.2-3c0-1.2,0.4-2.2,1.2-3c0.8-0.8,1.8-1.2,3-1.2c1.2,0,2.1,0.4,3,1.2
				c0.8,0.8,1.2,1.8,1.2,3c0,1.2-0.4,2.2-1.2,3c-0.8,0.8-1.8,1.2-3,1.2C319.8,394.5,318.8,394.1,318,393.3z M324.2,398.7v32h-6.6
				v-32H324.2z"/>
			<path class="st0" d="M340.9,429.1c-2.4-1.4-4.4-3.3-5.7-5.8s-2.1-5.4-2.1-8.7c0-3.2,0.7-6.1,2.1-8.6c1.4-2.5,3.4-4.4,5.9-5.8
				c2.5-1.4,5.2-2,8.3-2c3.1,0,5.8,0.7,8.3,2c2.5,1.4,4.4,3.3,5.9,5.8c1.4,2.5,2.1,5.4,2.1,8.6s-0.7,6.1-2.2,8.6
				c-1.5,2.5-3.5,4.5-6,5.8c-2.5,1.4-5.3,2.1-8.4,2.1C346.1,431.2,343.3,430.5,340.9,429.1z M353.9,424.2c1.5-0.8,2.7-2,3.6-3.7
				s1.4-3.6,1.4-5.9c0-2.3-0.4-4.3-1.3-5.9s-2.1-2.8-3.5-3.6c-1.5-0.8-3.1-1.2-4.8-1.2c-1.7,0-3.3,0.4-4.7,1.2
				c-1.5,0.8-2.6,2-3.5,3.6c-0.9,1.6-1.3,3.6-1.3,5.9c0,3.4,0.9,6.1,2.6,8c1.8,1.9,4,2.8,6.6,2.8C350.8,425.5,352.4,425,353.9,424.2
				z"/>
			<path class="st0" d="M397.4,399.8c2,1,3.5,2.6,4.7,4.6c1.1,2.1,1.7,4.5,1.7,7.4v18.8h-6.6v-17.9c0-2.9-0.7-5.1-2.1-6.6
				c-1.4-1.5-3.4-2.3-5.9-2.3c-2.5,0-4.4,0.8-5.9,2.3c-1.5,1.5-2.2,3.7-2.2,6.6v17.9h-6.6v-32h6.6v3.7c1.1-1.3,2.5-2.3,4.1-3.1
				c1.7-0.7,3.5-1.1,5.4-1.1C393.1,398.2,395.4,398.7,397.4,399.8z"/>
			<path class="st0" d="M419.2,429.8c-2-0.9-3.6-2.1-4.7-3.7c-1.2-1.6-1.8-3.3-1.9-5.2h6.8c0.1,1.4,0.8,2.5,1.9,3.4
				c1.2,0.9,2.7,1.4,4.4,1.4c1.9,0,3.3-0.4,4.3-1.1c1-0.7,1.5-1.6,1.5-2.8c0-1.2-0.6-2.1-1.7-2.7c-1.1-0.6-2.9-1.2-5.4-1.9
				c-2.4-0.7-4.3-1.3-5.9-1.9c-1.5-0.6-2.8-1.6-3.9-2.8c-1.1-1.3-1.7-3-1.7-5c0-1.7,0.5-3.3,1.5-4.7c1-1.4,2.4-2.5,4.3-3.3
				c1.9-0.8,4-1.2,6.5-1.2c3.6,0,6.6,0.9,8.8,2.8s3.4,4.3,3.6,7.5h-6.6c-0.1-1.4-0.7-2.6-1.7-3.4s-2.5-1.3-4.2-1.3
				c-1.7,0-3.1,0.3-4,1c-0.9,0.7-1.4,1.5-1.4,2.6c0,0.9,0.3,1.6,0.9,2.1c0.6,0.6,1.4,1,2.3,1.4c0.9,0.3,2.2,0.7,3.9,1.2
				c2.3,0.6,4.2,1.2,5.7,1.9c1.5,0.6,2.8,1.6,3.9,2.8c1.1,1.2,1.6,2.9,1.7,4.9c0,1.8-0.5,3.4-1.5,4.9c-1,1.4-2.4,2.6-4.3,3.4
				c-1.8,0.8-4,1.2-6.5,1.2C423.5,431.2,421.2,430.7,419.2,429.8z"/>
		</g>
	</g>
</g>
</svg>
