<svg width="21" height="21" viewBox="0 0 21 21" fill="none" xmlns="http://www.w3.org/2000/svg">
<path fill-rule="evenodd" clip-rule="evenodd" d="M10.5008 5.85592C10.7057 5.85592 10.8717 6.02199 10.8717 6.22684V11.378L15.2023 13.753C15.3819 13.8516 15.4477 14.077 15.3491 14.2566C15.2506 14.4363 15.0252 14.502 14.8456 14.4035L10.1299 11.8172V6.22684C10.1299 6.02199 10.296 5.85592 10.5008 5.85592Z" fill="#3C3C3C"/>
<path fill-rule="evenodd" clip-rule="evenodd" d="M10.1299 11.8172V6.22684C10.1299 6.02199 10.296 5.85592 10.5008 5.85592C10.7057 5.85592 10.8717 6.02199 10.8717 6.22684V11.378L15.2023 13.753C15.3819 13.8516 15.4477 14.077 15.3491 14.2566C15.2506 14.4362 15.0252 14.502 14.8456 14.4035L10.1299 11.8172ZM11.3717 11.0819V6.22684C11.3717 5.74584 10.9818 5.35592 10.5008 5.35592C10.0198 5.35592 9.62988 5.74584 9.62988 6.22684V12.1132L14.6051 14.8419C15.0269 15.0732 15.5562 14.9188 15.7875 14.4971C16.0188 14.0753 15.8645 13.5459 15.4427 13.3147L11.3717 11.0819Z" fill="#3C3C3C"/>
<path fill-rule="evenodd" clip-rule="evenodd" d="M10.5 19.7582C15.6131 19.7582 19.7582 15.6131 19.7582 10.5C19.7582 5.38686 15.6131 1.24185 10.5 1.24185C5.38686 1.24185 1.24185 5.38686 1.24185 10.5C1.24185 15.6131 5.38686 19.7582 10.5 19.7582ZM10.5 20.5C16.0228 20.5 20.5 16.0228 20.5 10.5C20.5 4.97715 16.0228 0.5 10.5 0.5C4.97715 0.5 0.5 4.97715 0.5 10.5C0.5 16.0228 4.97715 20.5 10.5 20.5Z" fill="#3C3C3C"/>
<path fill-rule="evenodd" clip-rule="evenodd" d="M10.5 19.2582C15.337 19.2582 19.2582 15.337 19.2582 10.5C19.2582 5.663 15.337 1.74185 10.5 1.74185C5.663 1.74185 1.74185 5.663 1.74185 10.5C1.74185 15.337 5.663 19.2582 10.5 19.2582ZM21 10.5C21 16.299 16.299 21 10.5 21C4.70101 21 0 16.299 0 10.5C0 4.70101 4.70101 0 10.5 0C16.299 0 21 4.70101 21 10.5ZM19.7582 10.5C19.7582 15.6131 15.6131 19.7582 10.5 19.7582C5.38686 19.7582 1.24185 15.6131 1.24185 10.5C1.24185 5.38686 5.38686 1.24185 10.5 1.24185C15.6131 1.24185 19.7582 5.38686 19.7582 10.5ZM20.5 10.5C20.5 16.0228 16.0228 20.5 10.5 20.5C4.97715 20.5 0.5 16.0228 0.5 10.5C0.5 4.97715 4.97715 0.5 10.5 0.5C16.0228 0.5 20.5 4.97715 20.5 10.5Z" fill="#3C3C3C"/>
</svg>
