<svg width="20" height="21" viewBox="0 0 20 21" fill="none" xmlns="http://www.w3.org/2000/svg">
<path fill-rule="evenodd" clip-rule="evenodd" d="M4.94328 0.803335C5.02284 0.339252 5.4252 0 5.89605 0H13.436C13.9069 0 14.3093 0.339252 14.3888 0.803335L14.9688 4.18667L13.0633 4.51333L12.621 1.93333H6.7111L6.26882 4.51333L4.36328 4.18667L4.94328 0.803335Z" fill="#FDFDFD"/>
<path fill-rule="evenodd" clip-rule="evenodd" d="M0 4.35003C0 3.81615 0.432791 3.38336 0.966667 3.38336H18.3667C18.9005 3.38336 19.3333 3.81615 19.3333 4.35003C19.3333 4.8839 18.9005 5.31669 18.3667 5.31669H0.966667C0.432791 5.31669 0 4.8839 0 4.35003Z" fill="#FDFDFD"/>
<path fill-rule="evenodd" clip-rule="evenodd" d="M2.67749 3.68886C2.86023 3.49395 3.1155 3.38336 3.38268 3.38336H15.9494C16.2165 3.38336 16.4718 3.49395 16.6545 3.68886C16.8373 3.88378 16.9312 4.14563 16.914 4.41226L15.9473 19.3956C15.9145 19.9043 15.4924 20.3 14.9827 20.3H4.34935C3.83964 20.3 3.41751 19.9043 3.38469 19.3956L2.41802 4.41226C2.40082 4.14563 2.49474 3.88378 2.67749 3.68886ZM4.41373 5.31669L5.25566 18.3667H14.0764L14.9183 5.31669H4.41373Z" fill="#FDFDFD"/>
<path fill-rule="evenodd" clip-rule="evenodd" d="M6.2832 15.4667C6.2832 14.9328 6.71599 14.5 7.24987 14.5H12.0832C12.6171 14.5 13.0499 14.9328 13.0499 15.4667C13.0499 16.0005 12.6171 16.4333 12.0832 16.4333H7.24987C6.71599 16.4333 6.2832 16.0005 6.2832 15.4667Z" fill="#FDFDFD"/>
</svg>
