<svg width="20" height="18" viewBox="0 0 20 18" fill="none" xmlns="http://www.w3.org/2000/svg">
<path d="M19.4141 0.210938H5.3125C4.98891 0.210938 4.72656 0.473281 4.72656 0.796875V8.45246C3.94246 8.58684 3.21941 8.98676 2.68965 9.58594H2.38281V9C2.38281 8.67641 2.12047 8.41406 1.79688 8.41406H0.585938C0.262344 8.41406 0 8.67641 0 9C0 9.32359 0.262344 9.58594 0.585938 9.58594H1.21094V16.6172H0.585938C0.262344 16.6172 0 16.8795 0 17.2031C0 17.5267 0.262344 17.7891 0.585938 17.7891H1.79688C2.12047 17.7891 2.38281 17.5267 2.38281 17.2031V16.6172H2.87754C6.61438 17.7999 6.47316 17.7891 6.64062 17.7891H14.6875C15.8997 17.7891 16.7488 16.5852 16.3445 15.4453H19.4141C19.7377 15.4453 20 15.183 20 14.8594V0.796875C20 0.473281 19.7377 0.210938 19.4141 0.210938ZM11.1719 1.38281H13.5156V4.3125H11.1719V1.38281ZM15.2734 16.0312C15.2734 16.3543 15.0106 16.6172 14.6875 16.6172H6.73184C2.99504 15.4345 3.13625 15.4453 2.96875 15.4453H2.38281V10.7578H2.96875C3.15484 10.7578 3.32988 10.6694 3.44031 10.5196C4.36832 9.26137 6.25594 9.26035 7.18465 10.5196C7.29512 10.6694 7.47016 10.7578 7.65625 10.7578H10.5859C10.909 10.7578 11.1719 11.0207 11.1719 11.3438C11.1719 11.6668 10.909 11.9297 10.5859 11.9297H7.07031C6.74672 11.9297 6.48438 12.192 6.48438 12.5156C6.48438 14.1311 7.79863 15.4453 9.41406 15.4453H14.6875C15.0106 15.4453 15.2734 15.7082 15.2734 16.0312ZM18.8281 14.2734C18.4729 14.2734 9.89668 14.2734 9.41406 14.2734C8.65016 14.2734 7.99848 13.7836 7.75664 13.1016H10.5859C11.5552 13.1016 12.3438 12.313 12.3438 11.3438C12.3438 10.3745 11.5552 9.58594 10.5859 9.58594H7.93535C7.40563 8.98676 6.68254 8.58684 5.89844 8.45246V1.38281H10V4.89844C10 5.22203 10.2623 5.48438 10.5859 5.48438H14.1016C14.4252 5.48438 14.6875 5.22203 14.6875 4.89844V1.38281H18.8281V14.2734Z" fill="#3C3C3C"/>
</svg>
