<svg width="23" height="25" viewBox="0 0 23 25" fill="none" xmlns="http://www.w3.org/2000/svg">
<path d="M4.9036 6.45294C4.23896 5.77722 3.84017 5.05224 3.67032 4.20759C3.29369 2.27898 4.46789 0.385557 6.3289 0.0828911C8.20467 -0.226813 9.78505 0.329247 10.9666 1.78626C11.1587 2.02558 11.3211 2.30009 11.5057 2.5746C11.5427 2.51829 11.587 2.46902 11.6239 2.41271C12.6947 0.709338 14.2529 -0.128271 16.3577 0.0195425C17.8494 0.125123 19.0975 1.27948 19.3559 2.7928C19.5775 4.08089 19.2452 5.2282 18.3516 6.22066C18.2999 6.27697 18.2482 6.34032 18.1744 6.42479C18.2704 6.43183 18.3368 6.4459 18.4033 6.4459C18.9276 6.4459 19.4519 6.43887 19.9763 6.4459C21.7265 6.4811 22.9967 7.70584 22.9967 9.37402C23.0041 11.3589 22.9967 13.3439 22.9967 15.3288C22.9967 17.5953 23.0041 19.8617 22.9967 22.1282C22.9893 23.5782 21.9702 24.7185 20.4785 24.9648C20.2791 25 20.0723 25 19.8729 25C14.2899 25 8.70685 25 3.12383 25C1.27021 25 0 23.7964 0 22.0297C0 17.8346 0 13.6324 0 9.43737C0 7.67768 1.28498 6.45294 3.12383 6.45294C3.69986 6.4459 4.2685 6.45294 4.9036 6.45294ZM12.4289 23.3037C12.5027 23.3037 12.5913 23.3107 12.6873 23.3107C15.0948 23.3107 17.4949 23.3107 19.9024 23.3107C20.7517 23.3107 21.2391 22.8461 21.2391 22.0367C21.2391 17.8416 21.2391 13.6395 21.2391 9.4444C21.2391 8.60679 20.7443 8.1352 19.8729 8.1352C17.5023 8.1352 15.1391 8.1352 12.7686 8.1352C12.6726 8.1352 12.5766 8.1352 12.4362 8.1352C12.4289 13.2172 12.4289 18.2499 12.4289 23.3037ZM10.5752 8.14224C10.494 8.14224 10.398 8.14224 10.3094 8.14224C7.92405 8.14224 5.53871 8.14224 3.14599 8.14224C2.24502 8.14224 1.765 8.60679 1.765 9.45848C1.765 13.6465 1.765 17.8346 1.765 22.0226C1.765 22.8532 2.24502 23.3107 3.10906 23.3107C5.48701 23.3107 7.86497 23.3107 10.2429 23.3107C10.3389 23.3107 10.4349 23.3037 10.5679 23.2966C10.5752 18.2428 10.5752 13.2172 10.5752 8.14224ZM12.3846 6.4811C12.8867 6.4811 13.352 6.49518 13.8172 6.4811C14.733 6.4459 15.6118 6.26994 16.365 5.74203C17.2586 5.11558 17.7756 4.29909 17.6426 3.19401C17.554 2.46198 17.0814 1.90592 16.4167 1.76515C15.4788 1.56806 14.6296 1.74403 13.8837 2.34232C13.736 2.46198 13.6031 2.59572 13.4849 2.73649C12.6061 3.84157 12.4289 5.12966 12.3846 6.4811ZM10.6196 6.4459C10.5974 6.19955 10.5826 5.97431 10.5605 5.74907C10.4571 4.84811 10.2798 3.96123 9.80721 3.15882C9.21641 2.15228 8.31545 1.69476 7.10432 1.68772C6.31413 1.68068 5.45747 2.12412 5.36885 3.27144C5.26547 4.46802 5.90057 5.30563 6.94185 5.89688C8.07913 6.53741 9.34196 6.47406 10.6196 6.4459Z" fill="#16217F"/>
</svg>
