<svg width="25" height="27" viewBox="0 0 25 27" fill="none" xmlns="http://www.w3.org/2000/svg">
<path d="M5.33 6.96918C4.60756 6.2394 4.1741 5.45641 3.98948 4.54419C3.58009 2.46129 4.8564 0.416401 6.87924 0.0895224C8.91812 -0.244958 10.6359 0.355586 11.9203 1.92917C12.129 2.18763 12.3056 2.4841 12.5062 2.78057C12.5464 2.71976 12.5945 2.66654 12.6347 2.60573C13.7986 0.766085 15.4923 -0.138533 17.7801 0.0211059C19.4015 0.135133 20.7581 1.38183 21.0391 3.01623C21.2799 4.40736 20.9187 5.64646 19.9474 6.71832C19.8912 6.77913 19.835 6.84755 19.7547 6.93877C19.8591 6.94637 19.9313 6.96158 20.0036 6.96158C20.5735 6.96158 21.1434 6.95397 21.7133 6.96158C23.6158 6.99959 24.9964 8.3223 24.9964 10.1239C25.0045 12.2677 24.9964 14.4114 24.9964 16.5551C24.9964 19.0029 25.0045 21.4507 24.9964 23.8985C24.9884 25.4644 23.8807 26.6959 22.2592 26.962C22.0425 27 21.8177 27 21.601 27C15.5325 27 9.46397 27 3.39547 27C1.38066 27 0 25.7001 0 23.792C0 19.2613 0 14.723 0 10.1924C0 8.2919 1.39672 6.96918 3.39547 6.96918C4.02158 6.96158 4.63967 6.96918 5.33 6.96918ZM13.5096 25.168C13.5899 25.168 13.6862 25.1756 13.7906 25.1756C16.4074 25.1756 19.0162 25.1756 21.6331 25.1756C22.5562 25.1756 23.086 24.6738 23.086 23.7996C23.086 19.2689 23.086 14.7306 23.086 10.2C23.086 9.29534 22.5482 8.78602 21.601 8.78602C19.0243 8.78602 16.4556 8.78602 13.8789 8.78602C13.7745 8.78602 13.6702 8.78602 13.5177 8.78602C13.5096 14.2745 13.5096 19.7098 13.5096 25.168ZM11.4948 8.79362C11.4065 8.79362 11.3022 8.79362 11.2059 8.79362C8.61309 8.79362 6.02034 8.79362 3.41955 8.79362C2.44024 8.79362 1.91848 9.29534 1.91848 10.2152C1.91848 14.7382 1.91848 19.2613 1.91848 23.7844C1.91848 24.6814 2.44024 25.1756 3.37941 25.1756C5.96415 25.1756 8.54888 25.1756 11.1336 25.1756C11.238 25.1756 11.3423 25.168 11.4868 25.1604C11.4948 19.7022 11.4948 14.2745 11.4948 8.79362ZM13.4615 6.99959C14.0073 6.99959 14.513 7.01479 15.0187 6.99959C16.0141 6.96158 16.9693 6.77153 17.7881 6.20139C18.7594 5.52483 19.3213 4.64302 19.1768 3.44953C19.0805 2.65894 18.5667 2.0584 17.8443 1.90636C16.8248 1.69351 15.9017 1.88355 15.091 2.52971C14.9304 2.65894 14.7859 2.80338 14.6575 2.95541C13.7023 4.1489 13.5096 5.54003 13.4615 6.99959ZM11.543 6.96158C11.5189 6.69551 11.5029 6.45225 11.4788 6.209C11.3664 5.23596 11.1737 4.27813 10.66 3.41152C10.0178 2.32446 9.03853 1.83034 7.72208 1.82274C6.86318 1.81514 5.93204 2.29405 5.83571 3.53315C5.72333 4.82546 6.41366 5.73008 7.54549 6.36863C8.78166 7.0604 10.1543 6.99198 11.543 6.96158Z" fill="#16227F"/>
</svg>
