<svg width="39" height="39" viewBox="0 0 39 39" fill="none" xmlns="http://www.w3.org/2000/svg">
<path d="M3.26704 29.9758C4.55912 29.1144 5.80587 28.2757 7.06395 27.4256C8.26535 26.6209 9.45543 25.8162 10.6568 25.0114C12.799 23.5947 15.4398 23.7647 17.3553 25.4875C18.2166 26.2582 19.146 26.6322 20.2568 26.2695C20.6535 26.1335 21.0388 25.8728 21.3562 25.5895C23.7137 23.5834 26.0598 21.5659 28.4173 19.5484C30.6161 17.6557 33.4723 17.6557 35.6824 19.5258C35.8298 19.6504 35.9771 19.7638 36.2038 19.9451C36.2038 19.7071 36.2038 19.5598 36.2038 19.4124C36.2038 18.2564 36.1924 17.0889 36.2038 15.9329C36.2151 15.1848 36.6798 14.6521 37.3712 14.5275C37.9719 14.4254 38.5953 14.7768 38.8219 15.3888C38.8899 15.5702 38.9126 15.7742 38.9126 15.9669C38.9126 19.4011 38.924 22.8353 38.8786 26.2695C38.8559 27.981 38.5953 29.6697 38.0852 31.3245C36.9632 34.9627 34.5263 37.2296 30.8768 38.2383C29.358 38.6576 27.8053 38.8957 26.2298 38.907C21.7075 38.9297 17.1739 38.9523 12.6516 38.907C10.5095 38.8843 8.40136 38.5216 6.40657 37.6716C3.47105 36.4248 1.66894 34.2034 0.773549 31.1885C0.297519 29.6131 0.0368357 27.981 0.0255016 26.3489C-0.00850054 21.7812 -0.00850054 17.2136 0.0255016 12.646C0.0595038 10.8552 0.354189 9.07578 0.932225 7.36434C2.06563 3.97546 4.37778 1.83332 7.76666 0.824592C9.38743 0.337228 11.0535 0.0992126 12.7423 0.0765445C15.5758 0.0425424 18.398 0.0538764 21.2315 0.0538764C21.9229 0.0538764 22.4669 0.495904 22.6029 1.09661C22.7389 1.73132 22.4216 2.37736 21.8209 2.62671C21.5829 2.72871 21.2995 2.76271 21.0388 2.76271C18.5227 2.77405 16.0065 2.76271 13.4903 2.77405C11.8469 2.77405 10.2148 2.94406 8.62804 3.39742C5.76053 4.21347 4.00375 6.10626 3.27837 8.97377C2.89302 10.3792 2.73434 11.83 2.73434 13.292C2.73434 17.599 2.71167 21.9173 2.75701 26.2242C2.76834 27.3576 3.01769 28.491 3.16503 29.6244C3.17637 29.7264 3.2217 29.8284 3.26704 29.9758ZM4.35511 32.5486C4.84247 33.4666 5.82853 34.3734 6.9506 34.9514C8.75272 35.8695 10.7135 36.1755 12.697 36.2095C16.8566 36.2548 21.0162 36.2662 25.1758 36.2208C26.5358 36.2095 27.9186 36.0961 29.2673 35.8581C32.7696 35.2461 34.9684 33.1946 35.7504 29.6811C36.1811 27.7316 36.2151 25.7595 36.1811 23.776C36.1811 23.64 36.0564 23.47 35.9431 23.368C35.2517 22.756 34.549 22.1666 33.8576 21.5659C32.7469 20.6138 31.3415 20.6252 30.2307 21.5772C27.8166 23.6514 25.4024 25.7255 22.9883 27.7883C22.6369 28.083 22.2516 28.3663 21.8322 28.5703C19.8147 29.6017 17.4799 29.239 15.6552 27.6409C14.4764 26.5982 13.2977 26.5302 11.9943 27.4029C10.3848 28.4797 8.77539 29.5677 7.17729 30.6445C6.24789 31.2678 5.29583 31.9139 4.35511 32.5486Z" fill="#16227F"/>
<path d="M14.0226 17.225C11.2797 17.225 9.05825 15.0035 9.04692 12.272C9.03558 9.52916 11.2911 7.27368 14.0339 7.28502C16.7881 7.28502 19.0322 9.55182 19.0095 12.2947C18.9869 15.0262 16.7654 17.225 14.0226 17.225ZM14.0226 14.5048C15.2806 14.5048 16.2894 13.5074 16.3007 12.2607C16.3007 11.0253 15.2806 9.99385 14.0452 9.99385C12.7985 9.99385 11.7784 11.0026 11.7671 12.2493C11.7558 13.4961 12.7645 14.5048 14.0226 14.5048Z" fill="#16227F"/>
<path d="M31.6809 4.79151C31.6809 6.33294 31.6809 7.86304 31.6809 9.40447C31.6809 10.3225 31.6809 11.2406 31.6809 12.1586C31.6809 12.986 31.0915 13.5981 30.3321 13.6094C29.5614 13.6207 28.9607 12.986 28.9607 12.136C28.9607 9.83516 28.9607 7.53435 28.9607 5.2222C28.9607 5.07486 28.9607 4.92752 28.9607 4.76884C28.9267 4.74617 28.904 4.73484 28.87 4.71217C28.496 5.0862 28.1333 5.47155 27.7593 5.84558C27.1246 6.46895 26.2859 6.50295 25.7305 5.93625C25.1865 5.36955 25.2205 4.5535 25.8438 3.93012C26.9999 2.76272 28.156 1.60664 29.3121 0.439236C29.8788 -0.1388 30.7402 -0.150134 31.3182 0.427902C32.4969 1.62931 33.6757 2.80805 34.8431 3.99813C35.4211 4.5875 35.4438 5.42622 34.8998 5.97025C34.3557 6.50295 33.517 6.49162 32.9276 5.91358C32.5423 5.52822 32.1682 5.1202 31.7942 4.72351C31.7489 4.74617 31.7149 4.76884 31.6809 4.79151Z" fill="#16227F"/>
</svg>
