<svg width="13" height="12" viewBox="0 0 13 12" fill="none" xmlns="http://www.w3.org/2000/svg">
<path d="M13 5.80096C12.9695 6.03152 12.9458 6.26207 12.9051 6.48923C12.6067 8.1743 11.654 9.35419 10.1079 10.0696C9.25012 10.4663 8.33808 10.6527 7.40231 10.7273C6.64284 10.785 5.87998 10.7748 5.12391 10.6765C5.04253 10.6663 4.9849 10.69 4.92387 10.7477C4.17796 11.4359 3.29644 11.7886 2.27929 11.8021C2.03857 11.8055 1.79784 11.8021 1.55712 11.8021C1.51643 11.8021 1.47575 11.7987 1.41133 11.7953C1.48592 11.6733 1.55034 11.5614 1.61815 11.4597C1.93685 10.9816 2.18436 10.4731 2.3471 9.9204C2.37422 9.82886 2.35727 9.78817 2.27929 9.74071C1.01803 8.9575 0.299248 7.8183 0.0788665 6.36039C-0.0669243 5.38732 -0.0194575 4.42782 0.295857 3.49204C0.750182 2.15619 1.66561 1.24754 2.94043 0.674552C3.81518 0.281256 4.73739 0.0947797 5.69012 0.0303605C6.82932 -0.0476206 7.95496 0.0167986 9.06026 0.315161C10.074 0.58979 10.9861 1.04751 11.715 1.82054C12.3931 2.54271 12.7728 3.40728 12.9254 4.38035C12.9559 4.57022 12.9763 4.76348 13 4.95673C13 5.24153 13 5.52294 13 5.80096ZM3.2015 10.6256C3.22524 10.6188 3.24558 10.6121 3.26253 10.6053C3.78127 10.4154 4.1983 10.0899 4.54074 9.66272C4.58482 9.60509 4.62889 9.57118 4.71027 9.58474C5.67655 9.76783 6.64962 9.78817 7.62608 9.68307C8.39911 9.5983 9.14841 9.41861 9.84685 9.066C10.7589 8.60489 11.4133 7.91323 11.7421 6.93678C11.9625 6.28241 12.0134 5.60771 11.9591 4.91944C11.8303 3.34625 11.0606 2.224 9.60952 1.58659C8.73477 1.20008 7.80578 1.05429 6.85644 1.02716C5.75454 0.993258 4.66958 1.09158 3.6287 1.48827C2.81838 1.7968 2.13011 2.26808 1.64866 3.00381C1.30283 3.53273 1.12314 4.11589 1.05194 4.73635C0.967173 5.50938 1.01125 6.27563 1.27571 7.01137C1.62832 7.98104 2.29963 8.64897 3.21167 9.09651C3.32356 9.15076 3.43545 9.2084 3.56428 9.27282C3.44223 9.72714 3.32356 10.1679 3.2015 10.6256Z" fill="#0C1364"/>
<path d="M5.44809 5.40416C5.29891 5.09902 5.15312 4.80065 5.00732 4.49551C5.35654 4.31581 5.68881 4.12595 6.09906 4.17002C6.79072 4.24461 7.31624 4.93288 7.16367 5.61437C7.05179 6.11616 6.91617 6.61456 6.79072 7.11296C6.7636 7.22485 6.73647 7.32995 6.84497 7.41133C6.94668 7.48931 7.04161 7.4554 7.13994 7.40454C7.2247 7.36047 7.31285 7.31978 7.41457 7.27232C7.56036 7.57407 7.70615 7.87243 7.85194 8.1674C6.906 8.82855 6.02447 8.32676 5.8007 7.61475C5.73289 7.40115 5.72272 7.18416 5.78035 6.96378C5.9058 6.46877 6.02786 5.97376 6.15331 5.47875C6.18043 5.37704 6.17026 5.29227 6.08889 5.22785C6.01091 5.16683 5.92615 5.17022 5.83799 5.2109C5.71254 5.27532 5.58371 5.33635 5.44809 5.40416Z" fill="#0C1364"/>
<path d="M6.72438 2.13919C7.07699 2.1358 7.36179 2.4206 7.36179 2.76982C7.36179 3.11904 7.07021 3.40723 6.72438 3.40384C6.37855 3.40045 6.09714 3.11904 6.09375 2.7766C6.09375 2.42399 6.37177 2.13919 6.72438 2.13919Z" fill="#0C1364"/>
</svg>
