<svg width="30" height="30" viewBox="0 0 30 30" fill="none" xmlns="http://www.w3.org/2000/svg">
<path d="M13.4967 10.4313C15.0147 10.4607 16.474 11.0478 17.6913 12.2148C18.212 12.7138 18.2486 13.4624 17.7793 13.9762C17.3173 14.4899 16.5547 14.5413 16.0267 14.0569C15.2127 13.3083 14.2887 12.89 13.1667 12.934C12.2867 12.9707 11.5094 13.2716 10.8568 13.8661C10.3801 14.2991 9.93278 14.7688 9.47812 15.2238C7.53482 17.1613 5.59152 19.0989 3.66289 21.0438C2.19624 22.5189 2.12291 24.7427 3.47956 26.2545C4.85087 27.7884 7.24883 27.9425 8.75213 26.5261C9.98411 25.3738 11.1501 24.1482 12.3454 22.9593C12.7194 22.585 13.1447 22.4015 13.6654 22.5556C14.516 22.7978 14.8387 23.8179 14.3034 24.5152C14.2667 24.5592 14.23 24.6106 14.186 24.6473C12.9247 25.9023 11.7074 27.194 10.4021 28.3976C7.01416 31.5387 1.34559 29.8214 0.223611 25.3372C-0.32638 23.1354 0.128279 21.1318 1.69759 19.5025C4.12488 16.9779 6.6255 14.5193 9.12613 12.0606C10.2408 10.9744 11.7807 10.424 13.4967 10.4313Z" fill="#B3B3B3"/>
<path d="M16.5039 19.5686C14.9859 19.5393 13.5266 18.9521 12.3093 17.7852C11.7886 17.2861 11.752 16.5375 12.2213 16.0238C12.6833 15.5101 13.4459 15.4587 13.9739 15.9431C14.7879 16.6917 15.7119 17.11 16.8339 17.066C17.7139 17.0293 18.4912 16.7284 19.1438 16.1339C19.6205 15.7009 20.0678 15.2312 20.5225 14.7762C22.4658 12.8386 24.4091 10.9011 26.3377 8.95621C27.8044 7.48105 27.8777 5.25728 26.5211 3.74542C25.1497 2.21154 22.7518 2.05742 21.2485 3.47387C20.0165 4.61878 18.8505 5.84442 17.6552 7.0407C17.2812 7.41499 16.8559 7.59847 16.3352 7.44435C15.4846 7.20216 15.1619 6.18202 15.6972 5.4848C15.7339 5.44076 15.7706 5.38939 15.8146 5.35269C17.0759 4.0977 18.2932 2.80601 19.5985 1.60239C22.9938 -1.53876 28.6623 0.178596 29.777 4.66281C30.327 6.86456 29.8723 8.86814 28.303 10.4974C25.8757 13.0221 23.3751 15.4807 20.8745 17.9393C19.7598 19.0182 18.2199 19.576 16.5039 19.5686Z" fill="#B3B3B3"/>
</svg>
