<svg width="17" height="23" viewBox="0 0 17 23" fill="none" xmlns="http://www.w3.org/2000/svg">
<path fill-rule="evenodd" clip-rule="evenodd" d="M10.0446 2.73991C10.6025 1.77371 11.8379 1.44266 12.8041 2.0005L15.1834 3.37417C16.1496 3.932 16.4807 5.16748 15.9228 6.13368L8.55713 18.8914C8.30714 19.3244 7.90545 19.6493 7.42976 19.8033L4.62716 20.7104C3.94364 20.9317 3.21878 20.5132 3.06862 19.8106L2.45293 16.9299C2.34842 16.441 2.42896 15.9307 2.67895 15.4976L10.0446 2.73991ZM12.4001 2.70028C11.8204 2.36558 11.0791 2.56421 10.7444 3.14393L3.37873 15.9017C3.22874 16.1615 3.18042 16.4677 3.24312 16.761L3.85881 19.6417C3.90886 19.8759 4.15048 20.0154 4.37833 19.9417L7.18093 19.0345C7.46634 18.9421 7.70735 18.7472 7.85735 18.4874L15.223 5.72966C15.5577 5.14994 15.3591 4.40865 14.7794 4.07395L12.4001 2.70028Z" fill="white"/>
<path fill-rule="evenodd" clip-rule="evenodd" d="M14.25 8.06058L9.28153 5.19204L9.68555 4.49226L14.654 7.3608L14.25 8.06058Z" fill="white"/>
</svg>
