<svg width="15" height="19" viewBox="0 0 15 19" fill="none" xmlns="http://www.w3.org/2000/svg">
<path d="M9.6528 7.52409C10.5013 7.52409 11.3556 7.52409 12.2041 7.52409C12.4657 7.52409 12.6458 7.64489 12.7039 7.85197C12.7737 8.09932 12.6168 8.35818 12.3552 8.40995C12.2739 8.42145 12.1925 8.4272 12.117 8.4272C10.4781 8.4272 8.83917 8.4272 7.20027 8.4272C7.13634 8.4272 7.07822 8.4272 7.01429 8.42145C6.75858 8.39269 6.59004 8.21437 6.59585 7.96702C6.60166 7.72542 6.77601 7.54134 7.03173 7.52409C7.19445 7.51258 7.35718 7.51833 7.5141 7.51833C8.22894 7.52409 8.94378 7.52409 9.6528 7.52409Z" fill="#3C3C3C"/>
<path d="M9.64053 15.6234C8.80365 15.6234 7.96676 15.6234 7.12407 15.6234C6.81024 15.6234 6.61845 15.4681 6.5952 15.2207C6.57196 14.9791 6.71725 14.7835 6.95553 14.7318C7.00202 14.7203 7.05433 14.7203 7.10082 14.7203C8.80365 14.7203 10.5007 14.7203 12.2035 14.7203C12.5057 14.7203 12.7033 14.8871 12.7149 15.1402C12.7265 15.3703 12.5813 15.5601 12.3546 15.6061C12.2732 15.6234 12.1919 15.6234 12.1163 15.6234C11.2911 15.6234 10.4658 15.6234 9.64053 15.6234Z" fill="#3C3C3C"/>
<path d="M9.64116 12.0224C8.79265 12.0224 7.93833 12.0224 7.08982 12.0224C6.78761 12.0224 6.59002 11.8383 6.59583 11.568C6.60164 11.3379 6.76437 11.1596 6.99684 11.1366C7.03171 11.1308 7.07239 11.1308 7.10726 11.1308C8.81009 11.1308 10.5071 11.1308 12.2099 11.1308C12.5005 11.1308 12.6865 11.2746 12.7214 11.5105C12.762 11.7981 12.5528 12.0224 12.2332 12.0224C11.5416 12.0282 10.8558 12.0224 10.1642 12.0224C9.98986 12.0224 9.81551 12.0224 9.64116 12.0224Z" fill="#3C3C3C"/>
<path d="M3.69586 11.4702C4.12593 11.0618 4.57343 10.6361 5.03255 10.2104C5.11392 10.1357 5.21853 10.0609 5.32895 10.0321C5.52655 9.97458 5.72996 10.0839 5.82876 10.2622C5.93337 10.4463 5.90431 10.6304 5.72996 10.7972C5.21853 11.2804 4.7071 11.7636 4.18986 12.2468C4.10849 12.3215 4.03294 12.4021 3.94577 12.4711C3.74817 12.6322 3.52151 12.6264 3.34135 12.4538C3.02171 12.1432 2.71369 11.8268 2.40566 11.5047C2.21969 11.3091 2.23131 11.0215 2.40566 10.8547C2.58583 10.6821 2.84735 10.6994 3.05658 10.895C3.2658 11.079 3.47502 11.2631 3.69586 11.4702Z" fill="#3C3C3C"/>
<path d="M3.68453 7.88073C4.07973 7.50683 4.49236 7.12142 4.90499 6.73026C4.97473 6.66698 5.03866 6.59796 5.1084 6.54043C5.31762 6.36786 5.57333 6.37937 5.75931 6.56919C5.93947 6.75327 5.93366 7.00637 5.73606 7.19045C5.14908 7.74843 4.5621 8.30065 3.96931 8.85288C3.76008 9.0427 3.52762 9.0312 3.32421 8.83562C3.02781 8.5365 2.73141 8.23738 2.44083 7.93825C2.23161 7.71966 2.21998 7.42629 2.41758 7.24797C2.60356 7.08115 2.87671 7.10992 3.09755 7.32275C3.28352 7.51258 3.48112 7.6909 3.68453 7.88073Z" fill="#3C3C3C"/>
<path d="M3.68451 15.0769C4.13782 14.6512 4.60276 14.2141 5.06188 13.7769C5.25367 13.5986 5.44545 13.5698 5.63724 13.6733C5.91039 13.8287 5.97432 14.1565 5.74766 14.3751C5.15487 14.9446 4.55626 15.5026 3.95185 16.0606C3.75425 16.2446 3.51597 16.2274 3.32418 16.0318C3.02779 15.7384 2.73139 15.4393 2.4408 15.1344C2.22577 14.9158 2.21996 14.6225 2.41175 14.4442C2.59772 14.2716 2.87087 14.3061 3.09171 14.5189C3.2835 14.7088 3.4811 14.8813 3.68451 15.0769Z" fill="#3C3C3C"/>
<path d="M14.9942 4.44083C14.9942 3.61824 14.4072 2.86468 13.611 2.65185C13.4018 2.59432 13.1809 2.57707 12.9659 2.57131C12.437 2.55981 11.914 2.56556 11.3677 2.56556C11.3677 2.32396 11.3677 2.09387 11.3677 1.86953C11.3677 1.64519 11.2747 1.53014 11.0539 1.47262C10.9609 1.44961 10.8563 1.44385 10.7575 1.44385C10.3913 1.4381 10.0252 1.4381 9.65905 1.44385C9.62418 1.44385 9.58931 1.4381 9.56606 1.43235C9.26385 0.604012 8.45021 1.52588e-05 7.49709 1.52588e-05C6.5556 1.52588e-05 5.75358 0.586755 5.44556 1.41509C5.41069 1.44385 5.3642 1.45536 5.30027 1.45536C4.89926 1.44961 4.49244 1.44961 4.09144 1.46111C3.76017 1.47262 3.63231 1.61067 3.63231 1.9328C3.63231 2.13989 3.63231 2.34697 3.63231 2.56556C3.55095 2.57131 3.49283 2.57131 3.43472 2.57131C2.95816 2.57131 2.47578 2.57131 1.99923 2.57131C0.831073 2.57707 0 3.39965 0 4.55012C0 6.87982 0 9.20952 0 11.545C0 13.4375 0 15.3358 0 17.2283C0 17.8611 0.278962 18.3385 0.802015 18.6779C1.16234 18.908 1.55754 19 1.9876 19C5.6606 19 9.33359 19 13.0066 19C13.1635 19 13.3146 18.9885 13.4715 18.9655C14.3491 18.8274 15 18.1199 15 17.2743C15 12.9888 15 8.71482 14.9942 4.44083ZM4.55637 2.35273C4.81209 2.35273 5.06199 2.35273 5.31189 2.35273C5.42813 2.35273 5.55017 2.35273 5.66641 2.35273C5.99186 2.35273 6.14297 2.23768 6.23014 1.92705C6.38706 1.36907 6.84037 0.983667 7.38086 0.9434C7.97365 0.897381 8.51995 1.29429 8.68849 1.88103C8.7931 2.24918 8.92677 2.34697 9.31034 2.35273C9.68229 2.35273 10.0542 2.35273 10.4378 2.35273C10.4378 2.95672 10.4378 3.54346 10.4378 4.14171C8.48508 4.14171 6.52654 4.14171 4.55637 4.14171C4.55637 3.54346 4.55637 2.96247 4.55637 2.35273ZM14.0934 4.59614C14.0934 8.77234 14.0934 12.9485 14.0934 17.1248C14.0934 17.6942 13.8086 18.0164 13.2332 18.0854C13.1403 18.0969 13.0473 18.1027 12.9543 18.1027C9.31616 18.1027 5.67222 18.1027 2.0341 18.1027C1.85974 18.1027 1.68539 18.0854 1.52267 18.0336C1.11003 17.9071 0.906625 17.6195 0.906625 17.1938C0.906625 12.9716 0.906625 8.74358 0.906625 4.52136C0.906625 3.96913 1.28439 3.5262 1.82487 3.49744C2.3828 3.46868 2.94072 3.48594 3.50446 3.48019C3.53933 3.48019 3.5742 3.48594 3.63812 3.49169C3.63812 3.81382 3.63812 4.1302 3.63812 4.44658C3.63812 4.88376 3.80085 5.05058 4.24254 5.05058C6.41031 5.05058 8.57807 5.05058 10.7458 5.05058C11.1933 5.05058 11.3677 4.87801 11.3677 4.44083C11.3677 4.1417 11.3677 3.83683 11.3735 3.53771C11.3735 3.5262 11.3793 3.5147 11.3909 3.49169C12.007 3.49169 12.6172 3.46868 13.2216 3.49744C13.704 3.52045 14.0759 3.96338 14.0934 4.44658C14.0934 4.49835 14.0934 4.54437 14.0934 4.59614Z" fill="#3C3C3C"/>
</svg>
