<svg width="17" height="20" viewBox="0 0 17 20" fill="none" xmlns="http://www.w3.org/2000/svg">
<path d="M8.80137 0C9.25389 0.0928998 9.69311 0.225614 10.0924 0.491042C10.678 0.889184 11.0773 1.43331 11.2769 2.11015C11.3169 2.2296 11.3568 2.29595 11.4899 2.32249C12.4215 2.53484 13.3399 2.74718 14.2716 2.97279C14.5777 3.05242 14.6708 3.18514 14.591 3.50365C14.5244 3.79562 14.4579 4.10086 14.378 4.41938C14.5644 4.41938 14.7374 4.41938 14.8971 4.41938C15.0701 4.41938 15.1899 4.48573 15.2698 4.61845C15.6025 5.16257 15.9352 5.7067 16.2547 6.25083C16.2946 6.31719 16.3212 6.39681 16.3212 6.47644C16.4277 8.65295 16.5342 10.8295 16.654 13.006C16.7604 15.1559 16.8802 17.2926 16.9867 19.4426C16.9867 19.509 17 19.5886 17 19.6549C16.9867 19.854 16.8669 19.9867 16.654 20C16.6007 20 16.5475 20 16.4942 20C11.1705 20 5.83337 20 0.509583 20C0.0836805 20 -0.0227952 19.8938 0.00382371 19.4691C0.136918 16.9343 0.270013 14.4127 0.389798 11.8779C0.469655 10.073 0.562821 8.26808 0.655987 6.46317C0.655987 6.38354 0.695915 6.30392 0.735844 6.22429C1.00203 5.77306 1.28153 5.32183 1.54772 4.8706C1.70743 4.60518 1.84053 4.31321 2.26643 4.43265C2.2265 4.10086 2.19988 3.80889 2.15996 3.50365C2.10672 3.03915 2.04017 2.57465 1.98693 2.11015C1.96031 1.87127 2.0801 1.72528 2.34629 1.69874C2.94521 1.61911 3.54414 1.55275 4.12976 1.4864C4.72868 1.42004 5.32761 1.35368 5.91322 1.27405C6.00639 1.26078 6.11286 1.2077 6.1661 1.12807C6.64524 0.530856 7.25748 0.172528 8.00281 0.0398142C8.04274 0.0398142 8.06935 0.0132714 8.10928 0C8.36216 0 8.57511 0 8.80137 0ZM15.6424 6.80823C10.8643 6.80823 6.09956 6.80823 1.32146 6.80823C1.10851 10.9887 0.895557 15.1427 0.682606 19.3232C5.8866 19.3232 11.0773 19.3232 16.2946 19.3232C16.0816 15.1427 15.8687 10.9754 15.6424 6.80823ZM3.15816 6.09157C3.71716 6.09157 4.26285 6.09157 4.80854 6.09157C4.72868 5.74652 4.64882 5.41473 4.56897 5.08295C4.50242 4.7777 4.58228 4.64499 4.87508 4.57863C5.83337 4.33975 6.80496 4.11413 7.76324 3.88852C7.82978 3.87525 7.89633 3.84871 7.96288 3.83543C7.88302 3.13205 7.80316 2.46848 7.72331 1.7651C6.04632 1.96417 4.39594 2.16324 2.71895 2.36231C2.86536 3.59655 3.01176 4.83079 3.15816 6.09157ZM9.71973 3.39748C9.86613 3.35766 9.98592 3.34439 10.1057 3.30458C10.505 3.21168 10.6248 3.27804 10.7179 3.67618C10.9043 4.43265 11.0773 5.18912 11.2636 5.94559C11.2769 5.99867 11.3435 6.09157 11.3967 6.09157C12.009 6.10484 12.6345 6.09157 13.2734 6.09157C13.473 5.25547 13.6726 4.41938 13.859 3.57001C12.528 3.26476 11.2104 2.94625 9.87944 2.64101C9.83951 2.90644 9.78627 3.13205 9.71973 3.39748ZM10.1057 4.00796C8.49526 4.39283 6.89812 4.7777 5.28768 5.16257C5.36753 5.48109 5.44739 5.78633 5.51394 6.09157C7.23086 6.09157 8.90785 6.09157 10.6115 6.09157C10.4384 5.38819 10.2654 4.71135 10.1057 4.00796ZM7.20424 1.12807C7.44381 1.10153 7.68338 1.06171 7.92295 1.03517C8.17583 1.00863 8.32223 1.1148 8.36216 1.36695C8.4154 1.83145 8.46864 2.29595 8.52188 2.76045C8.5618 3.05242 8.58842 3.34439 8.62835 3.62309C8.89454 3.64964 9.00102 3.53019 9.04094 3.29131C9.09418 2.95952 9.18735 2.62774 9.2672 2.30922C9.36037 1.92435 9.46685 1.84472 9.86613 1.93762C10.0791 1.99071 10.3053 2.03052 10.5316 2.08361C9.98592 0.66357 8.18914 0.278699 7.20424 1.12807ZM13.9788 6.0783C14.4446 6.0783 14.8838 6.0783 15.3629 6.0783C15.1766 5.75979 14.9903 5.45455 14.8039 5.16257C14.7773 5.12276 14.7108 5.08295 14.6708 5.08295C14.5244 5.06967 14.378 5.08295 14.2183 5.08295C14.1385 5.428 14.0586 5.74652 13.9788 6.0783ZM2.46607 6.09157C2.42614 5.78633 2.39953 5.48109 2.3596 5.18912C2.3596 5.1493 2.31967 5.10949 2.29305 5.09622C2.26643 5.08295 2.21319 5.10949 2.19988 5.13603C2.01355 5.45455 1.81391 5.75979 1.62758 6.09157C1.92039 6.09157 2.18657 6.09157 2.46607 6.09157Z" fill="#3C3C3C"/>
</svg>
