<svg width="17" height="22" viewBox="0 0 17 22" fill="none" xmlns="http://www.w3.org/2000/svg">
<path d="M16.2973 4.9434L11.486 0.199564C11.2186 -0.065148 10.771 -0.0678911 10.5036 0.199564L5.6917 4.9434C5.42013 5.21223 5.42082 5.64742 5.6917 5.91556C5.96259 6.18438 6.40257 6.18438 6.67346 5.91556L10.3001 2.34046V13.0609C10.3001 13.4404 10.6109 13.7484 10.9945 13.7484C11.3781 13.7484 11.6889 13.4404 11.6889 13.0609V2.34046L15.3156 5.91556C15.5871 6.18438 16.0264 6.18438 16.2973 5.91556C16.5688 5.64673 16.5688 5.21154 16.2973 4.9434Z" fill="#0C1364"/>
<path d="M9.82754 16.0851L6.2009 19.6602V8.9398C6.2009 8.56028 5.89012 8.2523 5.50649 8.2523C5.12285 8.2523 4.81208 8.56033 4.81208 8.9398V19.6602L1.18543 16.0851C0.913862 15.8163 0.474561 15.8163 0.203677 16.0851C-0.0678924 16.354 -0.0678924 16.7891 0.203677 17.0573L5.01558 21.8004C5.28304 22.0652 5.73062 22.0679 5.99802 21.8004L10.8099 17.0566C11.0815 16.7878 11.0808 16.3526 10.8099 16.0844C10.5385 15.817 10.0984 15.8163 9.82754 16.0851Z" fill="#0C1364"/>
</svg>
