<svg width="50" height="31" viewBox="0 0 50 31" fill="none" xmlns="http://www.w3.org/2000/svg">
<path d="M28.001 19.0758H22.0669C17.5717 19.0758 13.9043 22.7305 13.9043 27.2384V27.7095C13.9043 28.4099 14.4773 28.983 15.1777 28.983C15.8781 28.983 16.4511 28.4099 16.4511 27.7095V27.2384C16.4511 24.144 18.9725 21.6226 22.0669 21.6226H28.001C31.0954 21.6226 33.6168 24.144 33.6168 27.2384V27.7095C33.6168 28.4099 34.1898 28.983 34.8902 28.983C35.5906 28.983 36.1636 28.4099 36.1636 27.7095V27.2384C36.1509 22.7305 32.4962 19.0758 28.001 19.0758Z" fill="#16227F"/>
<path d="M11.5499 20.3492H8.1626C3.6547 20.3492 0 24.0039 0 28.499V28.9702C0 29.6706 0.573037 30.2436 1.27342 30.2436C1.9738 30.2436 2.54683 29.6706 2.54683 28.9702V28.499C2.54683 25.4046 5.0682 22.8833 8.1626 22.8833H11.5499C12.2503 22.8833 12.8233 22.3102 12.8233 21.6099C12.8233 20.9095 12.2503 20.3492 11.5499 20.3492Z" fill="#16227F"/>
<path d="M41.5377 20.3492H38.1504C37.45 20.3492 36.877 20.9222 36.877 21.6226C36.877 22.323 37.45 22.896 38.1504 22.896H41.5377C44.6321 22.896 47.1534 25.4174 47.1534 28.5118V28.9829C47.1534 29.6833 47.7265 30.2564 48.4268 30.2564C49.1272 30.2564 49.7002 29.6833 49.7002 28.9829V28.5118C49.7002 24.0039 46.0455 20.3492 41.5377 20.3492Z" fill="#16227F"/>
<path d="M42.0229 18.3117C45.4612 18.3117 48.2627 15.5102 48.2627 12.072C48.2627 8.63376 45.4612 5.83224 42.0229 5.83224C38.5847 5.83224 35.7832 8.63376 35.7832 12.072C35.7832 15.5102 38.5847 18.3117 42.0229 18.3117ZM42.0229 8.39181C44.0604 8.39181 45.7158 10.0473 45.7158 12.0847C45.7158 14.1222 44.0604 15.7776 42.0229 15.7776C39.9855 15.7776 38.33 14.1222 38.33 12.0847C38.33 10.0473 39.9855 8.39181 42.0229 8.39181Z" fill="#16227F"/>
<path d="M7.67724 18.3117C11.1155 18.3117 13.917 15.5102 13.917 12.072C13.917 8.63376 11.1155 5.83224 7.67724 5.83224C4.23902 5.83224 1.4375 8.63376 1.4375 12.072C1.4375 15.5102 4.23902 18.3117 7.67724 18.3117ZM7.67724 8.39181C9.7147 8.39181 11.3701 10.0473 11.3701 12.0847C11.3701 14.1222 9.7147 15.7776 7.67724 15.7776C5.63977 15.7776 3.98433 14.1222 3.98433 12.0847C3.99707 10.0473 5.65251 8.39181 7.67724 8.39181Z" fill="#16227F"/>
<path d="M25.0346 16.9364C29.7081 16.9364 33.5028 13.1417 33.5028 8.46822C33.5028 3.79478 29.7081 0 25.0346 0C20.3612 0 16.5664 3.79478 16.5664 8.46822C16.5664 13.1417 20.3612 16.9364 25.0346 16.9364ZM25.0346 2.54683C28.2946 2.54683 30.956 5.20827 30.956 8.46822C30.956 11.7282 28.2946 14.3896 25.0346 14.3896C21.7747 14.3896 19.1132 11.7282 19.1132 8.46822C19.1132 5.20827 21.7619 2.54683 25.0346 2.54683Z" fill="#16227F"/>
</svg>
